<svg xmlns="http://www.w3.org/2000/svg" width="28" height="28" viewBox="0 0 28 28" fill="none">
  <path d="M16.9171 19.1006L16.9771 19.1807L18.8868 21.7286L18.9497 21.8125L18.9164 21.9119L18.1506 24.2033L18.1184 24.2998L18.0214 24.3305C16.9138 24.6818 15.7316 24.8731 14.5046 24.8731L16.9171 19.1006ZM16.9171 19.1006H16.8171M16.9171 19.1006H16.8171M16.8171 19.1006H12.1917H12.0918M16.8171 19.1006H12.0918M12.0918 19.1006L12.0318 19.1806M12.0918 19.1006L12.0318 19.1806M12.0318 19.1806L10.1207 21.7285L10.0577 21.8125M12.0318 19.1806L10.0577 21.8125M10.0577 21.8125L10.091 21.912M10.0577 21.8125L10.091 21.912M10.091 21.912L10.8582 24.2034L10.8905 24.2997M10.091 21.912L10.8905 24.2997M10.8905 24.2997L10.9874 24.3305M10.8905 24.2997L10.9874 24.3305M10.9874 24.3305C12.1228 24.691 13.3099 24.8741 14.5044 24.8731L10.9874 24.3305ZM5.2779 12.2224L5.18352 12.1927L5.10261 12.2496L3.31341 13.5095L3.22968 13.5684L3.22857 13.6708L3.2258 13.926H3.22578V13.9282C3.22578 16.2963 4.00081 18.4878 5.31694 20.2787L5.37688 20.3602H5.4781H8.12312H8.22316L8.28316 20.2802L10.1153 17.8357L10.1782 17.7518L10.1449 17.6523L8.72132 13.3947L8.689 13.298L8.59179 13.2674L5.2779 12.2224ZM23.9063 12.2497L23.8253 12.1926L23.7309 12.2224L20.417 13.2674L20.3198 13.298L20.2875 13.3947L18.8639 17.6523L18.8307 17.7518L18.8935 17.8357L20.7242 20.2801L20.7842 20.3602H20.8843H23.5293H23.6304L23.6904 20.2788C25.0547 18.4266 25.7868 16.2056 25.7831 13.9279L25.783 13.9249L25.7789 13.6697L25.7772 13.5681L25.6941 13.5095L23.9063 12.2497ZM14.6196 10.4553L14.5044 10.3741L14.3893 10.4552L11.1432 12.7412L11.0215 12.827L11.0687 12.9682L12.3095 16.6779L12.3552 16.8144H12.4992H16.5083H16.6522L16.6979 16.6779L17.9387 12.9682L17.986 12.827L17.8643 12.7412L14.6196 10.4553ZM17.7328 3.43847L17.6403 3.41166L17.5617 3.46718L15.7739 4.72971L15.6892 4.78947V4.89308V8.27369V8.37743L15.774 8.43719L19.5048 11.0657L19.5856 11.1226L19.68 11.0929L22.782 10.1165L22.8792 10.0859L22.9116 9.98932L23.6788 7.702L23.712 7.6029L23.6496 7.51903C22.1945 5.56282 20.1132 4.12878 17.7328 3.43847ZM11.4471 3.46718L11.3685 3.41164L11.276 3.43848C8.89584 4.12943 6.81648 5.56397 5.36191 7.52041L5.29955 7.60429L5.33281 7.70337L6.1 9.98935L6.1324 10.0859L6.22953 10.1165L9.33016 11.0929L9.42456 11.1227L9.50546 11.0656L13.2348 8.43717L13.3196 8.37741V8.27369V4.89308V4.78947L13.235 4.72971L11.4471 3.46718ZM14.5044 0.69707C22.0482 0.69707 28.1527 6.62636 28.1527 13.9282C28.1527 21.23 22.0482 27.1593 14.5044 27.1593C6.96065 27.1593 0.856128 21.23 0.856128 13.9282C0.856128 6.62636 6.96065 0.69707 14.5044 0.69707Z" fill="url(#paint0_linear_334_1101)" stroke="#011027" stroke-width="0.4"/>
  <defs>
    <linearGradient id="paint0_linear_334_1101" x1="-7.50012" y1="32.5" x2="30.9999" y2="3" gradientUnits="userSpaceOnUse">
      <stop offset="0.835" stop-color="white"/>
    </linearGradient>
  </defs>
</svg>
