<svg xmlns="http://www.w3.org/2000/svg" width="29" height="28" viewBox="0 0 29 28" fill="none">
<path d="M16.9172 19.2209L16.9772 19.3009L18.8869 21.8488L18.9498 21.9327L18.9166 22.0322L18.1507 24.3235L18.1185 24.42L18.0215 24.4508C16.9139 24.802 15.7317 24.9933 14.5047 24.9933L16.9172 19.2209ZM16.9172 19.2209H16.8172M16.9172 19.2209H16.8172M16.8172 19.2209H12.1919H12.0919M16.8172 19.2209H12.0919M12.0919 19.2209L12.0319 19.3009M12.0919 19.2209L12.0319 19.3009M12.0319 19.3009L10.1208 21.8488L10.0578 21.9327M12.0319 19.3009L10.0578 21.9327M10.0578 21.9327L10.0912 22.0323M10.0578 21.9327L10.0912 22.0323M10.0912 22.0323L10.8583 24.3236L10.8906 24.42M10.0912 22.0323L10.8906 24.42M10.8906 24.42L10.9875 24.4507M10.8906 24.42L10.9875 24.4507M10.9875 24.4507C12.1229 24.8112 13.31 24.9943 14.5045 24.9933L10.9875 24.4507ZM5.27802 12.3427L5.18364 12.3129L5.10273 12.3699L3.31353 13.6297L3.2298 13.6887L3.22869 13.7911L3.22592 14.0463H3.22591V14.0484C3.22591 16.4165 4.00093 18.608 5.31706 20.3989L5.377 20.4805H5.47822H8.12324H8.22328L8.28328 20.4004L10.1154 17.956L10.1783 17.872L10.145 17.7726L8.72145 13.5149L8.68912 13.4183L8.59191 13.3876L5.27802 12.3427ZM23.9064 12.3699L23.8255 12.3129L23.731 12.3427L20.4172 13.3876L20.3199 13.4183L20.2876 13.5149L18.864 17.7726L18.8308 17.872L18.8936 17.9559L20.7244 20.4004L20.7843 20.4805H20.8844H23.5295H23.6305L23.6905 20.3991C25.0548 18.5469 25.787 16.3258 25.7832 14.0481L25.7831 14.0452L25.779 13.79L25.7773 13.6883L25.6942 13.6298L23.9064 12.3699ZM14.6197 10.5755L14.5046 10.4944L14.3894 10.5755L11.1433 12.8615L11.0216 12.9472L11.0688 13.0884L12.3096 16.7981L12.3553 16.9347H12.4993H16.5084H16.6524L16.698 16.7981L17.9389 13.0884L17.9861 12.9472L17.8644 12.8615L14.6197 10.5755ZM17.7329 3.5587L17.6404 3.5319L17.5618 3.58742L15.774 4.84995L15.6894 4.90971V5.01332V8.39393V8.49767L15.7742 8.55743L19.5049 11.1859L19.5858 11.2429L19.6801 11.2132L22.7822 10.2367L22.8793 10.2061L22.9117 10.1096L23.6789 7.82224L23.7122 7.72313L23.6498 7.63927C22.1946 5.68306 20.1133 4.24902 17.7329 3.5587ZM11.4473 3.58742L11.3686 3.53188L11.2761 3.55872C8.89596 4.24967 6.81661 5.68421 5.36203 7.64065L5.29967 7.72453L5.33293 7.82361L6.10012 10.1096L6.13252 10.2061L6.22966 10.2367L9.33029 11.2132L9.42468 11.2429L9.50558 11.1859L13.2349 8.55741L13.3197 8.49765V8.39393V5.01332V4.90971L13.2351 4.84995L11.4473 3.58742ZM14.5045 0.81731C22.0483 0.81731 28.1528 6.7466 28.1528 14.0484C28.1528 21.3503 22.0483 27.2796 14.5045 27.2796C6.96077 27.2796 0.85625 21.3503 0.85625 14.0484C0.85625 6.7466 6.96077 0.81731 14.5045 0.81731Z" fill="white"/>
</svg>