<svg xmlns="http://www.w3.org/2000/svg" width="36" height="29" viewBox="0 0 36 29" fill="white">
<path d="M26.5163 12.8505C30.5228 12.8505 33.7823 16.0118 33.7823 19.8977C33.7823 23.7835 30.5228 26.9449 26.5163 26.9449C22.5097 26.9449 19.2502 23.7835 19.2502 19.8977C19.2502 16.0118 22.5097 12.8505 26.5163 12.8505ZM26.5163 11.441C21.7018 11.441 17.797 15.2282 17.797 19.8977C17.797 24.5671 21.7018 28.3543 26.5163 28.3543C31.3308 28.3543 35.2355 24.5671 35.2355 19.8977C35.2355 15.2282 31.3308 11.441 26.5163 11.441ZM27.2429 23.3846V24.126H26.5163V23.4227C25.7635 23.41 24.986 23.2366 24.3364 22.9111L24.6678 21.7525C25.3624 22.0146 26.2867 22.2923 27.0104 22.133C27.8445 21.9498 28.016 21.1168 27.0932 20.7166C26.4174 20.4107 24.3481 20.15 24.3481 18.4304C24.3481 17.4706 25.1037 16.6095 26.5163 16.422V15.6694H27.2429V16.3868C27.7689 16.4009 28.3589 16.4896 29.0172 16.6827L28.7542 17.8441C28.1962 17.6538 27.58 17.4819 26.9784 17.5171C25.8972 17.5777 25.8013 18.4868 26.557 18.8674C27.8009 19.434 29.4227 19.854 29.4227 21.3663C29.4241 22.5756 28.4461 23.2197 27.2429 23.3846ZM15.7465 15.6694H11.9841V12.8505H17.4555C16.7521 13.699 16.1752 14.6461 15.7465 15.6694ZM14.8905 19.8977H11.9841V17.0788H15.2742C15.033 17.9822 14.8905 18.9237 14.8905 19.8977ZM18.8535 11.441H11.9841V8.62216H22.1566V9.45232C20.9374 9.93294 19.8257 10.6109 18.8535 11.441ZM22.1566 2.98441H11.9841V0.165527H22.1566V2.98441ZM22.1566 7.21272H11.9841V4.39384H22.1566V7.21272ZM15.7465 24.126H11.9841V21.3071H14.9908C15.1187 22.2909 15.3745 23.2366 15.7465 24.126ZM0.358398 8.62216H10.5309V11.441H0.358398V8.62216ZM0.358398 12.8505H10.5309V15.6694H0.358398V12.8505ZM18.8535 28.3543H11.9841V25.5354H16.4629C17.0994 26.5967 17.9074 27.5481 18.8535 28.3543ZM0.358398 21.3071H10.5309V24.126H0.358398V21.3071ZM0.358398 25.5354H10.5309V28.3543H0.358398V25.5354ZM0.358398 17.0788H10.5309V19.8977H0.358398V17.0788Z" fill="white"/>
</svg>
