<svg xmlns="http://www.w3.org/2000/svg" width="24" height="27" viewBox="0 0 24 27" fill="white">
  <path d="M16.8866 0.645752C17.6361 0.645774 18.3592 0.913692 18.9178 1.39828C19.4764 1.88288 19.8313 2.55015 19.9146 3.27252H21.6317C22.2264 3.27254 22.7994 3.48946 23.2369 3.8802C23.6744 4.27094 23.9444 4.80695 23.9933 5.38182L24.0015 5.57095V9.5111C24.0015 10.6014 23.5714 11.6504 22.7994 12.4429C22.0274 13.2354 20.9719 13.7113 19.8496 13.773L19.5652 13.7809C19.1136 15.1454 18.2717 16.3574 17.1375 17.2758C16.0033 18.1943 14.6234 18.7814 13.1586 18.9688V21.0032H15.5324C16.6564 21.0035 17.7376 21.4208 18.5544 22.1695C19.3712 22.9183 19.8618 23.9417 19.9254 25.0301L19.9335 25.2717V25.9284C19.9335 26.1667 19.8444 26.3968 19.6828 26.5762C19.5212 26.7556 19.2981 26.8722 19.0547 26.9043L18.9179 26.9135H5.37069C5.12503 26.9138 4.88758 26.8277 4.70233 26.6712C4.51708 26.5147 4.39659 26.2984 4.36318 26.0624L4.35506 25.9284V25.2717C4.35497 24.1817 4.78488 23.1328 5.55663 22.3404C6.32839 21.5479 7.3835 21.0718 8.50561 21.0098L8.75614 21.0032H11.1259V18.9688C9.66157 18.7809 8.28231 18.1936 7.14863 17.2752C6.01495 16.3568 5.17345 15.145 4.72204 13.7809L4.68819 13.7796C3.52095 13.7796 2.40152 13.3299 1.57616 12.5294C0.750793 11.7289 0.287109 10.6432 0.287109 9.5111V5.57095C0.287109 4.30222 1.34878 3.27252 2.65692 3.27252H4.37402C4.45732 2.54992 4.81237 1.88247 5.37125 1.39785C5.93014 0.913224 6.65363 0.645451 7.40331 0.645752H16.8866ZM15.5324 22.9733H8.75614C8.22112 22.973 7.70176 23.1484 7.28255 23.4708C6.86333 23.7932 6.56894 24.2437 6.44726 24.749L6.40935 24.9434H17.8765C17.8002 24.4308 17.5476 23.9583 17.1598 23.6024C16.7719 23.2465 16.2715 23.0281 15.7396 22.9825L15.5324 22.9733ZM16.8866 2.61583H7.40196C7.1326 2.61583 6.87427 2.71961 6.6838 2.90434C6.49333 3.08907 6.38633 3.33962 6.38633 3.60087V11.4799C6.40951 12.946 7.02628 14.3444 8.10346 15.3732C9.18063 16.4021 10.6318 16.9787 12.1436 16.9787C13.6554 16.9787 15.1066 16.4021 16.1838 15.3732C17.2609 14.3444 17.8777 12.946 17.9009 11.4799V3.60087C17.9009 3.33962 17.7939 3.08907 17.6034 2.90434C17.413 2.71961 17.156 2.61583 16.8866 2.61583ZM21.6303 5.2426H19.9322V11.7872C20.4618 11.7142 20.9504 11.4695 21.3185 11.093C21.6865 10.7165 21.9124 10.2302 21.9594 9.71336L21.9688 9.5111V5.57095C21.9687 5.49697 21.9428 5.42521 21.8954 5.36728C21.848 5.30935 21.7818 5.26866 21.7075 5.25179L21.6303 5.2426ZM4.35506 5.2426H2.65692C2.56713 5.2426 2.48102 5.27719 2.41753 5.33877C2.35404 5.40035 2.31838 5.48386 2.31838 5.57095V9.5111C2.3183 10.065 2.52446 10.6003 2.89891 11.0185C3.27337 11.4367 3.79095 11.7097 4.35641 11.7872L4.35506 5.2426Z" fill="white"/>
</svg>
