<svg xmlns="http://www.w3.org/2000/svg" width="28" height="28" viewBox="0 0 28 28" fill="none">
<path fill-rule="evenodd" clip-rule="evenodd" d="M18.7842 10.4639C18.7842 11.7659 18.2589 13.0145 17.3239 13.9352C16.389 14.8558 15.1208 15.373 13.7986 15.373C12.4763 15.373 11.2082 14.8558 10.2732 13.9352C9.33825 13.0145 8.81299 11.7659 8.81299 10.4639C8.81299 9.16196 9.33825 7.91331 10.2732 6.99268C11.2082 6.07205 12.4763 5.55484 13.7986 5.55484C15.1208 5.55484 16.389 6.07205 17.3239 6.99268C18.2589 7.91331 18.7842 9.16196 18.7842 10.4639ZM16.2914 10.4639C16.2914 11.1149 16.0287 11.7392 15.5613 12.1996C15.0938 12.6599 14.4597 12.9185 13.7986 12.9185C13.1375 12.9185 12.5034 12.6599 12.0359 12.1996C11.5684 11.7392 11.3058 11.1149 11.3058 10.4639C11.3058 9.81294 11.5684 9.18862 12.0359 8.72831C12.5034 8.26799 13.1375 8.00939 13.7986 8.00939C14.4597 8.00939 15.0938 8.26799 15.5613 8.72831C16.0287 9.18862 16.2914 9.81294 16.2914 10.4639Z" fill="white"/>
<path fill-rule="evenodd" clip-rule="evenodd" d="M13.7988 0.645752C6.22689 0.645752 0.0883789 6.69007 0.0883789 14.1458C0.0883789 21.6014 6.22689 27.6458 13.7988 27.6458C21.3706 27.6458 27.5092 21.6014 27.5092 14.1458C27.5092 6.69007 21.3706 0.645752 13.7988 0.645752ZM2.58118 14.1458C2.58118 16.7108 3.46986 19.072 4.95931 20.9473C6.00559 19.595 7.35508 18.4991 8.90246 17.745C10.4498 16.991 12.1533 16.5992 13.8798 16.6003C15.5841 16.5983 17.2663 16.9796 18.7982 17.7151C20.3301 18.4506 21.6712 19.5208 22.7192 20.8442C23.7992 19.4495 24.5263 17.8217 24.8405 16.0954C25.1546 14.3691 25.0468 12.5939 24.5259 10.9168C24.005 9.23965 23.086 7.70877 21.8449 6.4508C20.6038 5.19283 19.0763 4.24394 17.3889 3.68265C15.7014 3.12135 13.9025 2.96379 12.1409 3.22299C10.3793 3.48219 8.70572 4.15071 7.25862 5.17323C5.81153 6.19574 4.63251 7.54287 3.81914 9.10313C3.00576 10.6634 2.5814 12.3919 2.58118 14.1458ZM13.7988 25.1912C11.2236 25.1953 8.7261 24.323 6.72919 22.7219C7.53288 21.5887 8.60277 20.6634 9.84778 20.025C11.0928 19.3865 12.476 19.0537 13.8798 19.0548C15.266 19.0536 16.6325 19.3782 17.8657 20.0015C19.099 20.6247 20.1634 21.5288 20.9705 22.6385C18.9582 24.2916 16.4195 25.1952 13.7988 25.1912Z" fill="white"/>
</svg>