<svg width="21" height="21" viewBox="0 0 21 21" fill="none" xmlns="http://www.w3.org/2000/svg">
<g clip-path="url(#clip0_253_5700)">
<path d="M0.5 15.0682C0.5 15.6576 0.734125 16.2228 1.15087 16.6396C1.56762 17.0563 2.13285 17.2905 2.72222 17.2905H18.2778C18.8671 17.2905 19.4324 17.0563 19.8491 16.6396C20.2659 16.2228 20.5 15.6576 20.5 15.0682V5.06823C20.5 4.47886 20.2659 3.91363 19.8491 3.49688C19.4324 3.08013 18.8671 2.84601 18.2778 2.84601H2.72222C2.13285 2.84601 1.56762 3.08013 1.15087 3.49688C0.734125 3.91363 0.5 4.47886 0.5 5.06823V15.0682Z" fill="#75AADB"/>
<path d="M20.5 7.29047H0.5V12.846H20.5V7.29047Z" fill="#EEEEEE"/>
<path d="M10.5001 7.29047L10.2289 8.70602L9.43672 7.50213L9.72839 8.91324L8.53617 8.1038L9.34561 9.29658L7.93394 9.00547L9.13783 9.79713L7.72228 10.0682L9.13783 10.3394L7.93394 11.1316L9.34561 10.8399L8.53617 12.0321L9.72839 11.2227L9.43672 12.6344L10.2289 11.4305L10.5001 12.846L10.7712 11.4305L11.5628 12.6344L11.2717 11.2227L12.4645 12.0321L11.6551 10.8399L13.0662 11.1316L11.8623 10.3394L13.2778 10.0682L11.8623 9.79713L13.0662 9.00547L11.6551 9.29658L12.4645 8.1038L11.2717 8.91324L11.5628 7.50213L10.7712 8.70602L10.5001 7.29047Z" fill="#FCBF49"/>
<path d="M10.5001 8.02936L10.3656 8.73213L10.3012 9.06824L10.1128 8.78269L9.7195 8.18491L9.8645 8.88547L9.93394 9.22102L9.65061 9.0288L9.05839 8.62713L9.46005 9.21936L9.65228 9.50269L9.31728 9.43324L8.61617 9.2888L9.21394 9.68213L9.50005 9.86936L9.16394 9.9338L8.46117 10.0682L9.16394 10.2027L9.50005 10.2671L9.2145 10.4555L8.61672 10.8488L9.31783 10.7038L9.65339 10.6344L9.46117 10.9177L9.0595 11.5094L9.65117 11.1077L9.9345 10.9155L9.86505 11.251L9.72005 11.9521L10.1134 11.3544L10.3012 11.0682L10.3656 11.4044L10.5001 12.1071L10.6345 11.4044L10.6989 11.0682L10.8873 11.3544L11.2806 11.9521L11.1362 11.251L11.0667 10.916L11.3501 11.1082L11.9423 11.5099L11.5406 10.9177L11.3484 10.6344L11.6839 10.7038L12.3845 10.8488L11.7867 10.4555L11.5012 10.2671L11.8373 10.2027L12.5389 10.0682L11.8362 9.9338L11.5001 9.86936L11.7862 9.68102L12.3839 9.28769L11.6834 9.43213L11.3484 9.50158L11.5406 9.21824L11.9428 8.62602L11.3506 9.02824L11.0673 9.22047L11.1367 8.88547L11.2812 8.18491L10.8878 8.78269L10.6995 9.0688L10.6351 8.73269L10.5001 8.02936ZM10.5001 7.29047L10.7712 8.70602L11.5628 7.50213L11.2717 8.9138L12.4645 8.10436L11.6551 9.29713L13.0662 9.00602L11.8623 9.79769L13.2778 10.0682L11.8623 10.3394L13.0662 11.1316L11.6551 10.8399L12.4645 12.0321L11.2717 11.2227L11.5628 12.6344L10.7712 11.4305L10.5001 12.846L10.2289 11.4305L9.43672 12.6344L9.72839 11.2227L8.53617 12.0321L9.34561 10.8399L7.93394 11.1316L9.13783 10.3394L7.72228 10.0682L9.13783 9.79713L7.93394 9.00547L9.34561 9.29658L8.53617 8.1038L9.72839 8.91324L9.43672 7.50158L10.2289 8.70547L10.5001 7.29047Z" fill="#843511"/>
<path d="M10.5002 11.1793C9.88657 11.1793 9.38911 10.6819 9.38911 10.0682C9.38911 9.45458 9.88657 8.95712 10.5002 8.95712C11.1139 8.95712 11.6113 9.45458 11.6113 10.0682C11.6113 10.6819 11.1139 11.1793 10.5002 11.1793Z" fill="#FCBF49"/>
<path d="M10.5001 11.2488C11.1512 11.2488 11.6807 10.7193 11.6807 10.0682C11.6807 9.41711 11.1512 8.88766 10.5001 8.88766C9.849 8.88766 9.31955 9.41711 9.31955 10.0682C9.31955 10.7193 9.849 11.2488 10.5001 11.2488ZM10.5001 9.02655C11.0746 9.02655 11.5418 9.49378 11.5418 10.0682C11.5418 10.6427 11.0746 11.1099 10.5001 11.1099C9.92566 11.1099 9.45844 10.6427 9.45844 10.0682C9.45844 9.49378 9.92566 9.02655 10.5001 9.02655Z" fill="#843511"/>
<path d="M10.6105 9.94268C10.6105 10.0288 10.7555 10.0982 10.9343 10.0982C11.1138 10.0982 11.2588 10.0288 11.2588 9.94268C11.2588 9.85656 11.1138 9.78712 10.9343 9.78712C10.7549 9.78712 10.6105 9.85656 10.6105 9.94268ZM9.74768 9.92934C9.74768 9.8399 9.89546 9.76712 10.0777 9.76712C10.2599 9.76712 10.4077 9.83934 10.4077 9.92934C10.4077 10.0193 10.2599 10.0916 10.0777 10.0916C9.8949 10.0916 9.74768 10.0188 9.74768 9.92934Z" fill="#C16540"/>
<path d="M10.7983 10.5538C10.7983 10.4838 10.6617 10.4266 10.4939 10.4266C10.3261 10.4266 10.1895 10.4832 10.1895 10.5538C10.1895 10.6238 10.3261 10.681 10.4939 10.681C10.6617 10.681 10.7983 10.6238 10.7983 10.5538Z" fill="#ED8662"/>
</g>
<defs>
<clipPath id="clip0_253_5700">
<rect width="20" height="20" fill="white" transform="matrix(-1 0 0 1 20.5 0.0682373)"/>
</clipPath>
</defs>
</svg>
