<svg width="28" height="28" viewBox="0 0 28 28" fill="none" xmlns="http://www.w3.org/2000/svg">
<path d="M16.0569 19.4327L16.1168 19.5139L17.9972 22.0618L18.0586 22.1449L18.0263 22.2431L17.2722 24.5344L17.2404 24.6311L17.1435 24.6623C16.0524 25.0137 14.8878 25.2051 13.6789 25.2051L16.0569 19.4327ZM16.0569 19.4327H15.9559M16.0569 19.4327H15.9559M15.9559 19.4327H11.4016H11.3006M15.9559 19.4327H11.3006M11.3006 19.4327L11.2407 19.5139M11.3006 19.4327L11.2407 19.5139M11.2407 19.5139L9.35895 22.0617L9.2975 22.1449M11.2407 19.5139L9.2975 22.1449M9.2975 22.1449L9.32989 22.2432M9.2975 22.1449L9.32989 22.2432M9.32989 22.2432L10.0853 24.5345L10.1171 24.6311M9.32989 22.2432L10.1171 24.6311M10.1171 24.6311L10.2139 24.6623M10.1171 24.6311L10.2139 24.6623M10.2139 24.6623C11.3324 25.0229 12.5019 25.2061 13.6787 25.2051L10.2139 24.6623ZM4.59559 12.5547L4.49995 12.5241L4.41826 12.5825L2.65651 13.8424L2.57395 13.9014L2.57286 14.0029L2.57014 14.2581H2.57012V14.2602C2.57012 16.6276 3.33299 18.8186 4.62892 20.6095L4.6888 20.6923H4.79095H7.39538H7.49635L7.5563 20.611L9.36031 18.1666L9.42168 18.0834L9.38936 17.9853L7.9876 13.7276L7.95572 13.6308L7.85863 13.5997L4.59559 12.5547ZM22.9393 12.5826L22.8576 12.5241L22.7619 12.5547L19.4989 13.5997L19.4018 13.6308L19.3699 13.7276L17.9681 17.9853L17.9358 18.0834L17.9971 18.1665L19.7998 20.611L19.8597 20.6923H19.9607H22.5652H22.6672L22.7271 20.6097C24.0704 18.7575 24.7911 16.5369 24.7874 14.2599L24.7873 14.257L24.7832 14.0018L24.7816 13.9011L24.6997 13.8424L22.9393 12.5826ZM13.7951 10.7881L13.6788 10.7049L13.5624 10.7881L10.3662 13.0741L10.2466 13.1597L10.2926 13.2993L11.5143 17.009L11.5596 17.1465H11.7043H15.6518H15.7965L15.8418 17.009L17.0636 13.2993L17.1096 13.1597L16.99 13.0741L13.7951 10.7881ZM16.8592 3.77073L16.7655 3.74314L16.6861 3.80006L14.9258 5.06258L14.8423 5.12243V5.22511V8.60572V8.70854L14.9259 8.76837L18.5994 11.3968L18.6811 11.4553L18.7767 11.4247L21.8311 10.4483L21.9282 10.4172L21.9601 10.3205L22.7155 8.03315L22.7478 7.93534L22.687 7.85225C21.2541 5.89599 19.2043 4.46139 16.8592 3.77073ZM10.6713 3.80006L10.5919 3.74312L10.4982 3.77075C8.15339 4.46205 6.10548 5.89715 4.6732 7.85363L4.61236 7.93674L4.64468 8.03453L5.4001 10.3205L5.43206 10.4172L5.52908 10.4482L8.58213 11.4247L8.67779 11.4553L8.75946 11.3968L12.4316 8.76835L12.5152 8.70852V8.60572V5.22511V5.12243L12.4317 5.06258L10.6713 3.80006ZM13.6787 1.0291C21.1022 1.0291 27.1145 6.95551 27.1145 14.2602C27.1145 21.5649 21.1022 27.4913 13.6787 27.4913C6.2553 27.4913 0.242969 21.5649 0.242969 14.2602C0.242969 6.95551 6.2553 1.0291 13.6787 1.0291Z" fill="white" stroke="#317EF4" stroke-width="0.4"/>
</svg>
