<svg width="18" height="24" viewBox="0 0 18 24" fill="none" xmlns="http://www.w3.org/2000/svg">
<path d="M8.54284 4.59732C10.1443 4.59732 11.8938 5.00736 13.2493 5.67567V14.5287C13.2493 16.0387 12.8591 16.3498 8.53624 19.0146C4.16347 16.3385 3.82318 15.9992 3.82318 14.5287V5.67379C5.18149 4.99888 6.90647 4.59732 8.54284 4.59732ZM17.0198 3.65471V14.5287C17.0198 18.8666 13.9996 19.9987 8.53624 23.4496C3.07286 19.9987 0.0527344 18.8656 0.0527344 14.5287V3.65471C1.88611 2.08432 5.08251 0.826874 8.53624 0.826874C11.99 0.826874 15.1864 2.08432 17.0198 3.65471ZM15.1345 4.58884C13.5048 3.49635 11.0238 2.7121 8.54284 2.7121C6.04115 2.7121 3.56491 3.49824 1.93796 4.58884V14.5277C1.93796 17.3829 3.50081 18.12 8.53624 21.2269C13.566 18.1229 15.1345 17.3857 15.1345 14.5277V4.58884Z" fill="url(#paint0_linear_902_2213)"/>
<path d="M6.20513 9.49859C6.2363 8.8753 6.45445 8.39536 6.85959 8.05879C7.27096 7.71598 7.8101 7.54457 8.47702 7.54457C8.93202 7.54457 9.32158 7.6256 9.64569 7.78766C9.9698 7.94348 10.2129 8.15851 10.3749 8.43276C10.5432 8.70077 10.6274 9.00619 10.6274 9.349C10.6274 9.74167 10.5245 10.0751 10.3188 10.3494C10.1194 10.6174 9.87942 10.7981 9.59894 10.8916V10.929C9.96045 11.0412 10.2409 11.2407 10.4404 11.5274C10.6461 11.8141 10.7489 12.1818 10.7489 12.6306C10.7489 13.0046 10.6616 13.338 10.4871 13.631C10.3188 13.9239 10.0664 14.1546 9.72983 14.3228C9.39949 14.4849 9.00058 14.5659 8.53312 14.5659C7.8288 14.5659 7.25537 14.3883 6.81284 14.033C6.3703 13.6777 6.13657 13.1542 6.11164 12.4623H7.38315C7.39561 12.7677 7.49846 13.0139 7.69168 13.2009C7.89113 13.3817 8.16226 13.4721 8.50507 13.4721C8.82295 13.4721 9.06603 13.3848 9.23432 13.2103C9.40884 13.0295 9.4961 12.7989 9.4961 12.5184C9.4961 12.1444 9.37767 11.8764 9.14082 11.7144C8.90397 11.5523 8.53623 11.4713 8.0376 11.4713H7.76647V10.3961H8.0376C8.92267 10.3961 9.36521 10.1001 9.36521 9.50793C9.36521 9.23992 9.28418 9.03112 9.12213 8.88153C8.9663 8.73194 8.7388 8.65714 8.43962 8.65714C8.14668 8.65714 7.91918 8.73817 7.75712 8.90023C7.6013 9.05605 7.51092 9.2555 7.48599 9.49859H6.20513Z" fill="#181818"/>
<defs>
<linearGradient id="paint0_linear_902_2213" x1="17.0198" y1="12.1382" x2="0.0527343" y2="12.1382" gradientUnits="userSpaceOnUse">
<stop offset="0.243651" stop-color="#A14B15"/>
<stop offset="0.520628" stop-color="#F2BA8E"/>
<stop offset="0.7969" stop-color="#A14B15"/>
</linearGradient>
</defs>
</svg>
