<svg width="36" height="29" viewBox="0 0 36 29" fill="none" xmlns="http://www.w3.org/2000/svg">
<path d="M26.734 12.851C30.679 12.851 33.8886 16.0123 33.8886 19.8982C33.8886 23.784 30.679 26.9454 26.734 26.9454C22.789 26.9454 19.5794 23.784 19.5794 19.8982C19.5794 16.0123 22.789 12.851 26.734 12.851ZM26.734 11.4415C21.9934 11.4415 18.1485 15.2287 18.1485 19.8982C18.1485 24.5676 21.9934 28.3548 26.734 28.3548C31.4746 28.3548 35.3195 24.5676 35.3195 19.8982C35.3195 15.2287 31.4746 11.4415 26.734 11.4415ZM27.4495 23.3851V24.1265H26.734V23.4232C25.9928 23.4105 25.2273 23.2371 24.5876 22.9115L24.9139 21.753C25.5979 22.0151 26.5079 22.2928 27.2205 22.1335C28.0419 21.9503 28.2107 21.1173 27.3021 20.717C26.6367 20.4112 24.5991 20.1504 24.5991 18.4309C24.5991 17.4711 25.3432 16.6099 26.734 16.4225V15.6698H27.4495V16.3872C27.9675 16.4013 28.5484 16.4901 29.1966 16.6832L28.9376 17.8446C28.3881 17.6543 27.7814 17.4824 27.189 17.5176C26.1244 17.5782 26.03 18.4873 26.7741 18.8679C27.9989 19.4345 29.5958 19.8545 29.5958 21.3668C29.5973 22.5761 28.6343 23.2202 27.4495 23.3851ZM16.1295 15.6698H12.4249V12.851H17.8123C17.1197 13.6994 16.5516 14.6466 16.1295 15.6698ZM15.2867 19.8982H12.4249V17.0793H15.6644C15.4269 17.9827 15.2867 18.9242 15.2867 19.8982ZM19.1888 11.4415H12.4249V8.62265H22.4413V9.45281C21.2407 9.93343 20.1461 10.6114 19.1888 11.4415ZM22.4413 2.98489H12.4249V0.166016H22.4413V2.98489ZM22.4413 7.21321H12.4249V4.39433H22.4413V7.21321ZM16.1295 24.1265H12.4249V21.3076H15.3854C15.5113 22.2914 15.7632 23.2371 16.1295 24.1265ZM0.977539 8.62265H10.9939V11.4415H0.977539V8.62265ZM0.977539 12.851H10.9939V15.6698H0.977539V12.851ZM19.1888 28.3548H12.4249V25.5359H16.8349C17.4617 26.5972 18.2573 27.5486 19.1888 28.3548ZM0.977539 21.3076H10.9939V24.1265H0.977539V21.3076ZM0.977539 25.5359H10.9939V28.3548H0.977539V25.5359ZM0.977539 17.0793H10.9939V19.8982H0.977539V17.0793Z" fill="white"/>
</svg>
