<svg width="25" height="27" viewBox="0 0 25 27" fill="none" xmlns="http://www.w3.org/2000/svg">
<path d="M17.2911 0.126953C18.029 0.126975 18.7411 0.394893 19.2911 0.879486C19.8411 1.36408 20.1906 2.03135 20.2726 2.75372H21.9633C22.5489 2.75375 23.1131 2.97066 23.5439 3.3614C23.9747 3.75214 24.2406 4.28815 24.2887 4.86302L24.2967 5.05215V8.9923C24.2968 10.0826 23.8733 11.1316 23.1131 11.9241C22.3529 12.7166 21.3137 13.1925 20.2085 13.2542L19.9285 13.2621C19.4839 14.6266 18.6549 15.8386 17.5381 16.757C16.4213 17.6755 15.0626 18.2626 13.6202 18.45V20.4844H15.9577C17.0644 20.4847 18.129 20.902 18.9333 21.6507C19.7376 22.3995 20.2206 23.4229 20.2832 24.5113L20.2912 24.7529V25.4096C20.2912 25.6479 20.2035 25.878 20.0443 26.0574C19.8852 26.2368 19.6655 26.3534 19.4258 26.3855L19.2912 26.3947H5.95186C5.70997 26.395 5.47617 26.3089 5.29376 26.1524C5.11135 25.9959 4.99271 25.7796 4.95982 25.5436L4.95182 25.4096V24.7529C4.95172 23.6629 5.37504 22.614 6.13495 21.8216C6.89486 21.0291 7.93379 20.553 9.03868 20.491L9.28536 20.4844H11.6188V18.45C10.1769 18.2621 8.8188 17.6748 7.70252 16.7564C6.58623 15.838 5.75765 14.6262 5.31317 13.2621L5.27983 13.2608C4.1305 13.2608 3.02825 12.8111 2.21555 12.0106C1.40286 11.2101 0.946289 10.1244 0.946289 8.9923V5.05215C0.946289 3.78342 1.99167 2.75372 3.27973 2.75372H4.97048C5.0525 2.03112 5.40211 1.36367 5.95242 0.879048C6.50273 0.394425 7.21511 0.126652 7.95329 0.126953H17.2911ZM15.9577 22.4545H9.28536C8.75855 22.4542 8.24716 22.6296 7.83438 22.952C7.4216 23.2744 7.13172 23.7249 7.01191 24.2302L6.97458 24.4246H18.2658C18.1906 23.912 17.9419 23.4395 17.56 23.0836C17.1781 22.7277 16.6854 22.5093 16.1617 22.4637L15.9577 22.4545ZM17.2911 2.09703H7.95196C7.68673 2.09703 7.43236 2.20081 7.24482 2.38554C7.05727 2.57027 6.95191 2.82082 6.95191 3.08207V10.9611C6.97474 12.4272 7.58204 13.8256 8.64269 14.8544C9.70334 15.8833 11.1322 16.4599 12.6209 16.4599C14.1095 16.4599 15.5384 15.8833 16.599 14.8544C17.6597 13.8256 18.267 12.4272 18.2898 10.9611V3.08207C18.2898 2.82082 18.1844 2.57027 17.9969 2.38554C17.8093 2.20081 17.5563 2.09703 17.2911 2.09703ZM21.962 4.7238H20.2899V11.2684C20.8114 11.1954 21.2925 10.9507 21.6549 10.5742C22.0173 10.1977 22.2398 9.71142 22.286 9.19456L22.2953 8.9923V5.05215C22.2952 4.97817 22.2697 4.90641 22.223 4.84848C22.1763 4.79056 22.1111 4.74986 22.038 4.733L21.962 4.7238ZM4.95182 4.7238H3.27973C3.19132 4.7238 3.10654 4.7584 3.04402 4.81997C2.98151 4.88155 2.94638 4.96507 2.94638 5.05215V8.9923C2.94631 9.54619 3.1493 10.0815 3.51802 10.4997C3.88673 10.9179 4.39636 11.1909 4.95315 11.2684L4.95182 4.7238Z" fill="white"/>
</svg>
