<svg width="42" height="42" viewBox="0 0 42 42" fill="none" xmlns="http://www.w3.org/2000/svg">
<path d="M41.5561 21.1774C41.5561 32.645 32.2598 41.9413 20.7922 41.9413C9.32463 41.9413 0.0283203 32.645 0.0283203 21.1774C0.0283203 9.70979 9.32463 0.413483 20.7922 0.413483C32.2598 0.413483 41.5561 9.70979 41.5561 21.1774Z" fill="#011027"/>
<path d="M20.792 11.1774C26.306 11.1774 30.792 15.6634 30.792 21.1774C30.792 26.6914 26.306 31.1774 20.792 31.1774C15.278 31.1774 10.792 26.6914 10.792 21.1774C10.792 15.6634 15.278 11.1774 20.792 11.1774ZM20.792 9.1774C14.165 9.1774 8.79199 14.5504 8.79199 21.1774C8.79199 27.8044 14.165 33.1774 20.792 33.1774C27.419 33.1774 32.792 27.8044 32.792 21.1774C32.792 14.5504 27.419 9.1774 20.792 9.1774ZM24.792 23.2604C24.792 21.1154 22.56 20.5184 20.849 19.7144C19.81 19.1744 19.941 17.8854 21.43 17.7984C22.256 17.7484 23.105 17.9934 23.873 18.2634L24.235 16.6164C23.328 16.3404 22.516 16.2144 21.792 16.1954V15.1774H20.792V16.2444C18.847 16.5114 17.808 17.7314 17.808 19.0944C17.808 21.5324 20.655 21.9044 21.586 22.3374C22.856 22.9054 22.621 24.0874 21.472 24.3484C20.475 24.5744 19.203 24.1804 18.247 23.8084L17.792 25.4524C18.686 25.9144 19.757 26.1604 20.792 26.1794V27.1774H21.792V26.1244C23.449 25.8924 24.794 24.9784 24.792 23.2604Z" fill="url(#paint0_linear_253_6124)"/>
<defs>
<linearGradient id="paint0_linear_253_6124" x1="8.79199" y1="21.1774" x2="32.792" y2="21.1774" gradientUnits="userSpaceOnUse">
<stop offset="0.6" stop-color="#317EF4"/>
<stop offset="1" stop-color="#8F3BEF"/>
</linearGradient>
</defs>
</svg>
