<svg width="42" height="42" viewBox="0 0 42 42" fill="none" xmlns="http://www.w3.org/2000/svg">
<path d="M41.5278 21.1544C41.5278 32.622 32.2315 41.9183 20.7639 41.9183C9.29631 41.9183 0 32.622 0 21.1544C0 9.68681 9.29631 0.390503 20.7639 0.390503C32.2315 0.390503 41.5278 9.68681 41.5278 21.1544Z" fill="#011027"/>
<path fill-rule="evenodd" clip-rule="evenodd" d="M21.86 9.38555C21.7174 9.23922 21.5469 9.12293 21.3585 9.04353C21.1702 8.96412 20.9679 8.92322 20.7636 8.92322C20.5592 8.92322 20.3569 8.96412 20.1686 9.04353C19.9802 9.12293 19.8097 9.23922 19.6671 9.38555L18.69 10.3886C18.4977 10.5862 18.2556 10.7282 17.9893 10.7997C17.723 10.8711 17.4423 10.8693 17.177 10.7945L15.8293 10.4131C15.6325 10.3578 15.4266 10.3424 15.2238 10.368C15.0209 10.3935 14.8252 10.4593 14.6482 10.5617C14.4713 10.664 14.3166 10.8007 14.1933 10.9638C14.07 11.1269 13.9806 11.313 13.9303 11.5112L13.5842 12.868C13.5164 13.1351 13.3777 13.379 13.1828 13.5738C12.988 13.7687 12.7441 13.9074 12.477 13.9752L11.1202 14.3198C10.922 14.37 10.7359 14.4594 10.5728 14.5827C10.4097 14.706 10.273 14.8607 10.1707 15.0377C10.0683 15.2147 10.0025 15.4104 9.97696 15.6132C9.95145 15.8161 9.96682 16.022 10.0221 16.2188L10.4035 17.5679C10.478 17.8331 10.4796 18.1135 10.4082 18.3795C10.3368 18.6455 10.195 18.8873 9.99765 19.0795L8.99456 20.058C8.84823 20.2007 8.73194 20.3712 8.65254 20.5595C8.57313 20.7479 8.53223 20.9502 8.53223 21.1545C8.53223 21.3589 8.57313 21.5612 8.65254 21.7495C8.73194 21.9378 8.84823 22.1084 8.99456 22.251L9.99765 23.2296C10.195 23.4218 10.3368 23.6636 10.4082 23.9296C10.4796 24.1956 10.478 24.476 10.4035 24.7411L10.0221 26.0888C9.96682 26.2856 9.95145 26.4915 9.97696 26.6943C10.0025 26.8972 10.0683 27.0929 10.1707 27.2698C10.273 27.4468 10.4097 27.6015 10.5728 27.7248C10.7359 27.8481 10.922 27.9375 11.1202 27.9878L12.477 28.3339C12.7441 28.4017 12.988 28.5404 13.1828 28.7353C13.3777 28.9301 13.5164 29.174 13.5842 29.4411L13.9288 30.7979C13.9792 30.9959 14.0687 31.1819 14.1921 31.3448C14.3155 31.5077 14.4702 31.6443 14.6472 31.7465C14.8241 31.8486 15.0197 31.9144 15.2225 31.9398C15.4253 31.9652 15.6311 31.9498 15.8278 31.8944L17.177 31.5146C17.4423 31.4398 17.723 31.438 17.9893 31.5094C18.2556 31.5809 18.4977 31.7229 18.69 31.9204L19.6671 32.9235C19.8097 33.0699 19.9802 33.1862 20.1686 33.2656C20.3569 33.345 20.5592 33.3859 20.7636 33.3859C20.9679 33.3859 21.1702 33.345 21.3585 33.2656C21.5469 33.1862 21.7174 33.0699 21.86 32.9235L22.8386 31.9204C23.0308 31.7231 23.2726 31.5813 23.5386 31.5099C23.8046 31.4384 24.085 31.4401 24.3501 31.5146L25.6978 31.8944C25.8945 31.9498 26.1003 31.9652 26.3031 31.9398C26.5058 31.9144 26.7015 31.8486 26.8784 31.7465C27.0554 31.6443 27.2101 31.5077 27.3335 31.3448C27.4568 31.1819 27.5464 30.9959 27.5968 30.7979L27.9429 29.4411C28.0107 29.174 28.1494 28.9301 28.3443 28.7353C28.5391 28.5404 28.783 28.4017 29.0501 28.3339L30.4069 27.9893C30.605 27.9389 30.7909 27.8494 30.9538 27.726C31.1167 27.6026 31.2533 27.4479 31.3555 27.2709C31.4576 27.094 31.5234 26.8983 31.5488 26.6956C31.5742 26.4928 31.5588 26.287 31.5034 26.0903L31.1236 24.7411C31.0488 24.4758 31.047 24.1951 31.1184 23.9288C31.1899 23.6625 31.3319 23.4204 31.5295 23.2281L32.5325 22.251C32.6789 22.1084 32.7952 21.9378 32.8746 21.7495C32.954 21.5612 32.9949 21.3589 32.9949 21.1545C32.9949 20.9502 32.954 20.7479 32.8746 20.5595C32.7952 20.3712 32.6789 20.2007 32.5325 20.058L31.5295 19.081C31.3319 18.8887 31.1899 18.6466 31.1184 18.3803C31.047 18.114 31.0488 17.8333 31.1236 17.5679L31.5034 16.2203C31.5588 16.0236 31.5742 15.8178 31.5488 15.615C31.5234 15.4123 31.4576 15.2166 31.3555 15.0397C31.2533 14.8627 31.1167 14.708 30.9538 14.5846C30.7909 14.4612 30.605 14.3717 30.4069 14.3213L29.0501 13.9752C28.783 13.9074 28.5391 13.7687 28.3443 13.5738C28.1494 13.379 28.0107 13.1351 27.9429 12.868L27.5983 11.5112C27.5481 11.313 27.4587 11.1269 27.3354 10.9638C27.2121 10.8007 27.0574 10.664 26.8804 10.5617C26.7034 10.4593 26.5077 10.3935 26.3049 10.368C26.102 10.3424 25.8961 10.3578 25.6993 10.4131L24.3501 10.7945C24.0848 10.8693 23.8041 10.8711 23.5378 10.7997C23.2715 10.7282 23.0294 10.5862 22.8371 10.3886L21.86 9.38555ZM19.2321 15.0288H22.295V27.2802H19.2321V18.0917H17.7007V16.5603L19.2321 15.0288Z" fill="url(#paint0_linear_253_3040)"/>
<defs>
<linearGradient id="paint0_linear_253_3040" x1="8.53223" y1="21.1545" x2="32.9949" y2="21.1545" gradientUnits="userSpaceOnUse">
<stop offset="0.6" stop-color="#317EF4"/>
<stop offset="1" stop-color="#8F3BEF"/>
</linearGradient>
</defs>
</svg>
