<svg width="18" height="14" viewBox="0 0 18 14" fill="none" xmlns="http://www.w3.org/2000/svg">
<path d="M1.5 4.36429C1.5 2.66496 1.5 1.81569 1.96209 1.28737C2.42418 0.759038 3.16699 0.759827 4.6542 0.759827H14.1168C15.604 0.759827 16.3468 0.759827 16.8089 1.28816C17.271 1.81491 17.271 2.66417 17.271 4.3635V9.77137C17.271 11.4707 17.271 12.32 16.8089 12.8483C16.3468 13.3766 15.604 13.3766 14.1168 13.3766H4.6542C3.16699 13.3766 2.42418 13.3766 1.96209 12.8483C1.5 12.3215 1.5 11.4723 1.5 9.77295V4.36429Z" stroke="#8E2BFF" stroke-width="1.18282" stroke-linecap="round" stroke-linejoin="round"/>
<path d="M9.38569 8.64529C10.2567 8.64529 10.9628 7.9392 10.9628 7.06819C10.9628 6.19718 10.2567 5.49109 9.38569 5.49109C8.51469 5.49109 7.80859 6.19718 7.80859 7.06819C7.80859 7.9392 8.51469 8.64529 9.38569 8.64529Z" stroke="#8E2BFF" stroke-width="1.18282" stroke-linecap="round" stroke-linejoin="round"/>
<path d="M9.3855 5.49109V1.54834M9.3855 8.64529V12.588M17.271 4.70254H15.2996C15.0905 4.70254 14.8899 4.78562 14.742 4.9335C14.5941 5.08138 14.5111 5.28195 14.5111 5.49109V8.64529C14.5111 8.85442 14.5941 9.055 14.742 9.20288C14.8899 9.35076 15.0905 9.43384 15.2996 9.43384H17.271M1.5 4.70254H3.47137C3.68051 4.70254 3.88108 4.78562 4.02896 4.9335C4.17684 5.08138 4.25992 5.28195 4.25992 5.49109V8.64529C4.25992 8.85442 4.17684 9.055 4.02896 9.20288C3.88108 9.35076 3.68051 9.43384 3.47137 9.43384H1.5" stroke="#8E2BFF" stroke-width="1.18282" stroke-linecap="round" stroke-linejoin="round"/>
</svg>
