<svg width="390" height="145" viewBox="0 0 390 145" fill="none" xmlns="http://www.w3.org/2000/svg">
<path d="M23.1599 59.728H0.503941L-2.85606 70H-25.2241L-0.36006 2.032H24.2159L48.9839 70H26.5199L23.1599 59.728ZM17.9759 43.696L11.8319 24.784L5.68794 43.696H17.9759ZM105.57 25.36C105.57 29.648 104.578 33.552 102.594 37.072C100.61 40.528 97.6659 43.28 93.7619 45.328C89.9219 47.376 85.2499 48.4 79.7459 48.4H71.2979V70H49.9859V2.032H79.7459C88.0659 2.032 94.4339 4.144 98.8499 8.368C103.33 12.592 105.57 18.256 105.57 25.36ZM77.3459 31.6C81.7619 31.6 83.9699 29.52 83.9699 25.36C83.9699 21.2 81.7619 19.12 77.3459 19.12H71.2979V31.6H77.3459ZM129.322 2.032V40.336C129.322 43.472 129.994 45.968 131.338 47.824C132.746 49.616 134.986 50.512 138.058 50.512C141.13 50.512 143.402 49.616 144.874 47.824C146.346 45.968 147.082 43.472 147.082 40.336V2.032H168.298V40.336C168.298 46.8 166.954 52.336 164.266 56.944C161.578 61.488 157.898 64.912 153.226 67.216C148.554 69.52 143.338 70.672 137.578 70.672C131.818 70.672 126.698 69.52 122.218 67.216C117.802 64.912 114.346 61.488 111.85 56.944C109.354 52.4 108.106 46.864 108.106 40.336V2.032H129.322ZM194.962 19.024V27.376H216.082V43.408H194.962V53.008H218.962V70H173.65V2.032H218.962V19.024H194.962ZM249.745 70.672C241.617 70.672 234.897 68.784 229.585 65.008C224.337 61.168 221.489 55.568 221.041 48.208H243.697C244.017 52.112 245.745 54.064 248.881 54.064C250.033 54.064 250.993 53.808 251.761 53.296C252.593 52.72 253.009 51.856 253.009 50.704C253.009 49.104 252.145 47.824 250.417 46.864C248.689 45.84 246.001 44.688 242.353 43.408C238.001 41.872 234.385 40.368 231.505 38.896C228.689 37.424 226.257 35.28 224.209 32.464C222.161 29.648 221.169 26.032 221.233 21.616C221.233 17.2 222.353 13.456 224.593 10.384C226.897 7.248 230.001 4.88 233.905 3.27999C237.873 1.68 242.321 0.879997 247.249 0.879997C255.569 0.879997 262.161 2.8 267.025 6.64C271.953 10.48 274.545 15.888 274.801 22.864H251.857C251.793 20.944 251.313 19.568 250.417 18.736C249.521 17.904 248.433 17.488 247.153 17.488C246.257 17.488 245.521 17.808 244.945 18.448C244.369 19.024 244.081 19.856 244.081 20.944C244.081 22.48 244.913 23.76 246.577 24.784C248.305 25.744 251.025 26.928 254.737 28.336C259.025 29.936 262.545 31.472 265.297 32.944C268.113 34.416 270.545 36.464 272.593 39.088C274.641 41.712 275.665 45.008 275.665 48.976C275.665 53.136 274.641 56.88 272.593 60.208C270.545 63.472 267.569 66.032 263.665 67.888C259.761 69.744 255.121 70.672 249.745 70.672ZM332.689 2.032V18.928H314.641V70H293.329V18.928H275.473V2.032H332.689ZM378.214 59.728H355.558L352.198 70H329.83L354.694 2.032H379.27L404.038 70H381.574L378.214 59.728ZM373.03 43.696L366.886 24.784L360.742 43.696H373.03ZM39.1499 99.264C38.3179 97.92 37.1339 96.896 35.5979 96.192C34.0619 95.424 32.2059 95.04 30.0299 95.04C25.9339 95.04 22.7659 96.384 20.5259 99.072C18.2859 101.696 17.1659 105.312 17.1659 109.92C17.1659 115.232 18.4139 119.2 20.9099 121.824C23.4059 124.448 27.2459 125.76 32.4299 125.76C37.3579 125.76 41.3259 123.776 44.3339 119.808H27.3419V104.736H61.9979V126.048C59.0539 131.104 54.9899 135.456 49.8059 139.104C44.6219 142.688 38.0619 144.48 30.1259 144.48C23.0859 144.48 16.9419 143.04 11.6939 140.16C6.50994 137.216 2.50994 133.12 -0.306056 127.872C-3.05806 122.624 -4.43406 116.64 -4.43406 109.92C-4.43406 103.2 -3.05806 97.216 -0.306056 91.968C2.50994 86.72 6.50994 82.656 11.6939 79.776C16.8779 76.832 22.9579 75.36 29.9339 75.36C38.8299 75.36 46.0619 77.504 51.6299 81.792C57.2619 86.08 60.5899 91.904 61.6139 99.264H39.1499ZM109.609 144L96.8414 119.616H96.7454V144H75.4334V76.032H107.113C112.617 76.032 117.321 77.024 121.225 79.008C125.129 80.928 128.041 83.584 129.961 86.976C131.945 90.304 132.937 94.08 132.937 98.304C132.937 102.848 131.657 106.88 129.097 110.4C126.601 113.92 122.985 116.448 118.249 117.984L133.033 144H109.609ZM96.7454 105.408H105.193C107.241 105.408 108.777 104.96 109.801 104.064C110.825 103.104 111.337 101.632 111.337 99.648C111.337 97.856 110.793 96.448 109.705 95.424C108.681 94.4 107.177 93.888 105.193 93.888H96.7454V105.408ZM189.09 133.728H166.434L163.074 144H140.706L165.57 76.032H190.146L214.914 144H192.45L189.09 133.728ZM183.906 117.696L177.762 98.784L171.618 117.696H183.906ZM278.892 76.032V92.928H260.844V144H239.532V92.928H221.676V76.032H278.892ZM311.744 76.032V144H290.432V76.032H311.744ZM353.722 144.672C345.594 144.672 338.874 142.784 333.562 139.008C328.314 135.168 325.466 129.568 325.018 122.208H347.674C347.994 126.112 349.722 128.064 352.858 128.064C354.01 128.064 354.97 127.808 355.738 127.296C356.57 126.72 356.986 125.856 356.986 124.704C356.986 123.104 356.122 121.824 354.394 120.864C352.666 119.84 349.978 118.688 346.33 117.408C341.978 115.872 338.362 114.368 335.482 112.896C332.666 111.424 330.234 109.28 328.186 106.464C326.138 103.648 325.146 100.032 325.21 95.616C325.21 91.2 326.33 87.456 328.57 84.384C330.874 81.248 333.978 78.88 337.882 77.28C341.85 75.68 346.298 74.88 351.226 74.88C359.546 74.88 366.138 76.8 371.002 80.64C375.93 84.48 378.522 89.888 378.778 96.864H355.834C355.77 94.944 355.29 93.568 354.394 92.736C353.498 91.904 352.41 91.488 351.13 91.488C350.234 91.488 349.498 91.808 348.922 92.448C348.346 93.024 348.058 93.856 348.058 94.944C348.058 96.48 348.89 97.76 350.554 98.784C352.282 99.744 355.002 100.928 358.714 102.336C363.002 103.936 366.522 105.472 369.274 106.944C372.09 108.416 374.522 110.464 376.57 113.088C378.618 115.712 379.642 119.008 379.642 122.976C379.642 127.136 378.618 130.88 376.57 134.208C374.522 137.472 371.546 140.032 367.642 141.888C363.738 143.744 359.098 144.672 353.722 144.672Z" fill="url(#paint0_radial_1135_3443)" fill-opacity="0.2"/>
<defs>
<radialGradient id="paint0_radial_1135_3443" cx="0" cy="0" r="1" gradientUnits="userSpaceOnUse" gradientTransform="translate(60.6828 78) scale(247.865 139.988)">
<stop stop-color="#8F3BEF"/>
<stop offset="1" stop-color="#011027"/>
</radialGradient>
</defs>
</svg>
