<svg width="24" height="18" viewBox="0 0 24 18" fill="none" xmlns="http://www.w3.org/2000/svg">
<path d="M7.2 8.99994C9.52125 8.99994 11.4 7.12119 11.4 4.79994C11.4 2.47869 9.52125 0.599945 7.2 0.599945C4.87875 0.599945 3 2.47869 3 4.79994C3 7.12119 4.87875 8.99994 7.2 8.99994ZM10.08 10.1999H9.76875C8.98875 10.5749 8.1225 10.7999 7.2 10.7999C6.2775 10.7999 5.415 10.5749 4.63125 10.1999H4.32C1.935 10.1999 0 12.1349 0 14.5199V15.5999C0 16.5937 0.80625 17.3999 1.8 17.3999H12.6C13.5938 17.3999 14.4 16.5937 14.4 15.5999V14.5199C14.4 12.1349 12.465 10.1999 10.08 10.1999ZM18 8.99994C19.9875 8.99994 21.6 7.38744 21.6 5.39994C21.6 3.41244 19.9875 1.79994 18 1.79994C16.0125 1.79994 14.4 3.41244 14.4 5.39994C14.4 7.38744 16.0125 8.99994 18 8.99994ZM19.8 10.1999H19.6575C19.1363 10.3799 18.585 10.4999 18 10.4999C17.415 10.4999 16.8638 10.3799 16.3425 10.1999H16.2C15.435 10.1999 14.73 10.4212 14.1112 10.7774C15.0262 11.7637 15.6 13.0724 15.6 14.5199V15.9599C15.6 16.0424 15.5813 16.1212 15.5775 16.1999H22.2C23.1938 16.1999 24 15.3937 24 14.3999C24 12.0787 22.1213 10.1999 19.8 10.1999Z" fill="#FCFCFC"/>
</svg>
