<svg width="24" height="28" viewBox="0 0 24 28" fill="none" xmlns="http://www.w3.org/2000/svg">
<path d="M5.58 9.38002C5.7 9.50002 5.84 9.56002 6 9.56002C6.16 9.56002 6.3 9.50002 6.42 9.38002L7.98 7.82002C8.1 7.70002 8.16 7.56002 8.16 7.40002C8.16 7.24002 8.1 7.10002 7.98 6.98002L6.42 5.42002C6.3 5.30002 6.16 5.24002 6 5.24002C5.84 5.24002 5.7 5.30002 5.58 5.42002L4.02 6.98002C3.9 7.10002 3.84 7.24002 3.84 7.40002C3.84 7.56002 3.9 7.70002 4.02 7.82002L5.58 9.38002ZM17.4 8.00002C17.9 8.00002 18.325 7.82502 18.675 7.47502C19.025 7.12502 19.2 6.70002 19.2 6.20002C19.2 5.70002 19.025 5.27502 18.675 4.92502C18.325 4.57502 17.9 4.40002 17.4 4.40002C16.9 4.40002 16.475 4.57502 16.125 4.92502C15.775 5.27502 15.6 5.70002 15.6 6.20002C15.6 6.70002 15.775 7.12502 16.125 7.47502C16.475 7.82502 16.9 8.00002 17.4 8.00002ZM4.8 27.2C4.46 27.2 4.175 27.085 3.945 26.855C3.715 26.625 3.6 26.34 3.6 26V24.68C3.6 23.98 3.795 23.33 4.185 22.73C4.575 22.13 5.09 21.68 5.73 21.38C6.71 20.92 7.73 20.575 8.79 20.345C9.85 20.115 10.92 20 12 20C13.08 20 14.15 20.115 15.21 20.345C16.27 20.575 17.29 20.92 18.27 21.38C18.91 21.68 19.425 22.13 19.815 22.73C20.205 23.33 20.4 23.98 20.4 24.68V26C20.4 26.34 20.285 26.625 20.055 26.855C19.825 27.085 19.54 27.2 19.2 27.2H4.8ZM12 18.8C10.84 18.8 9.85 18.39 9.03 17.57C8.21 16.75 7.8 15.76 7.8 14.6C7.8 13.44 8.21 12.45 9.03 11.63C9.85 10.81 10.84 10.4 12 10.4C13.16 10.4 14.15 10.81 14.97 11.63C15.79 12.45 16.2 13.44 16.2 14.6C16.2 15.76 15.79 16.75 14.97 17.57C14.15 18.39 13.16 18.8 12 18.8ZM6.27 16.4H2.4C1.74 16.4 1.175 16.165 0.705 15.695C0.235 15.225 0 14.66 0 14V3.20002C0 2.54002 0.235 1.97502 0.705 1.50502C1.175 1.03502 1.74 0.800018 2.4 0.800018H21.6C22.26 0.800018 22.825 1.03502 23.295 1.50502C23.765 1.97502 24 2.54002 24 3.20002V14C24 14.66 23.765 15.225 23.295 15.695C22.825 16.165 22.26 16.4 21.6 16.4H17.73C17.85 16 17.93 15.6 17.97 15.2C18.01 14.8 18.01 14.4 17.97 14C17.81 12.48 17.165 11.2 16.035 10.16C14.905 9.12002 13.56 8.60002 12 8.60002C10.44 8.60002 9.095 9.12002 7.965 10.16C6.835 11.2 6.19 12.48 6.03 14C5.99 14.4 5.99 14.8 6.03 15.2C6.07 15.6 6.15 16 6.27 16.4Z" fill="#FCFCFC"/>
</svg>
