<svg width="18" height="23" viewBox="0 0 18 23" fill="none" xmlns="http://www.w3.org/2000/svg">
<path d="M8.54321 3.98997C10.1448 3.98997 11.8943 4.40003 13.2499 5.06837V13.9218C13.2499 15.4319 12.8596 15.743 8.53661 18.4079C4.16365 15.7317 3.82335 15.3923 3.82335 13.9218V5.06648C5.18171 4.39154 6.90677 3.98997 8.54321 3.98997ZM17.0205 3.04732V13.9218C17.0205 18.2599 14.0002 19.392 8.53661 22.843C3.073 19.392 0.0527344 18.2589 0.0527344 13.9218V3.04732C1.88619 1.47686 5.08273 0.21936 8.53661 0.21936C11.9905 0.21936 15.187 1.47686 17.0205 3.04732ZM15.1352 3.98149C13.5053 2.88895 11.0243 2.10467 8.54321 2.10467C6.04141 2.10467 3.56506 2.89084 1.93804 3.98149V13.9208C1.93804 16.7761 3.50096 17.5133 8.53661 20.6203C13.5666 17.5161 15.1352 16.7789 15.1352 13.9208V3.98149Z" fill="url(#paint0_linear_902_2123)"/>
<path d="M7.14566 8.07369V6.86762H9.39885V13.6833H8.05254V8.07369H7.14566Z" fill="#EFEFF0"/>
<defs>
<linearGradient id="paint0_linear_902_2123" x1="8.53661" y1="0.21936" x2="8.53661" y2="16.7767" gradientUnits="userSpaceOnUse">
<stop offset="0.243651" stop-color="#CFA53C"/>
<stop offset="0.441764" stop-color="white"/>
<stop offset="1" stop-color="#FFB700"/>
</linearGradient>
</defs>
</svg>
