<svg width="42" height="42" viewBox="0 0 42 42" fill="none" xmlns="http://www.w3.org/2000/svg">
<path d="M41.5278 21.1544C41.5278 32.622 32.2315 41.9183 20.7639 41.9183C9.29631 41.9183 0 32.622 0 21.1544C0 9.68684 9.29631 0.390533 20.7639 0.390533C32.2315 0.390533 41.5278 9.68684 41.5278 21.1544Z" fill="#011027"/>
<path d="M19.8398 21.3944V15.8617H18.2845C16.5617 15.8617 15.6535 14.7447 15.6535 13.6592C15.6535 12.5319 16.4886 11.8638 17.6057 11.8638C18.8898 11.8638 19.8919 12.8553 19.8919 14.5153V15.8617H21.6352V14.5153C21.6352 12.8553 22.6373 11.8638 23.9214 11.8638C25.0385 11.8638 25.8838 12.5319 25.8838 13.6588C25.8838 14.7447 24.944 15.8617 23.2426 15.8617H21.6873V21.3949H29.047C30.1846 21.3949 30.8005 20.9566 30.8005 19.8395V17.4175C30.8005 16.3111 30.1846 15.8622 29.047 15.8622H26.6147C27.2619 15.2778 27.648 14.4841 27.648 13.5862C27.648 11.5717 26.0508 10.121 24.0256 10.121C22.5224 10.121 21.3011 10.9557 20.7689 12.4384C20.2362 10.9561 19.0047 10.121 17.5015 10.121C15.4865 10.121 13.8791 11.5717 13.8791 13.5862C13.8791 14.4841 14.255 15.2778 14.9124 15.8622H12.4805C11.4049 15.8622 10.7266 16.3111 10.7266 17.4175V19.8395C10.7266 20.9566 11.3528 21.3949 12.4801 21.3949L19.8398 21.3944ZM19.8398 32.1881V22.5115H12.2191V29.5367C12.2191 31.28 13.2422 32.1881 14.9854 32.1881H19.8398ZM21.6873 22.5115V32.1881H26.5417C28.2849 32.1881 29.3076 31.28 29.3076 29.5367V22.5115H21.6873Z" fill="url(#paint0_linear_253_3049)"/>
<defs>
<linearGradient id="paint0_linear_253_3049" x1="20.7635" y1="10.121" x2="20.7635" y2="26.271" gradientUnits="userSpaceOnUse">
<stop offset="0.18" stop-color="#CFA53C"/>
<stop offset="0.340655" stop-color="#FFF2C6"/>
<stop offset="1" stop-color="#FFB700"/>
</linearGradient>
</defs>
</svg>
