<svg width="26" height="23" viewBox="0 0 26 23" fill="none" xmlns="http://www.w3.org/2000/svg">
<g clip-path="url(#clip0_253_5652)">
<path fill-rule="evenodd" clip-rule="evenodd" d="M12.7062 5.98011C14.5368 7.8107 14.5368 10.7787 12.7062 12.6092C10.8756 14.4398 7.90764 14.4398 6.07705 12.6092C4.24647 10.7787 4.24647 7.8107 6.07705 5.98011C7.90764 4.14953 10.8756 4.14953 12.7062 5.98011ZM14.6466 13.227C16.5751 10.6564 16.3703 6.99258 14.032 4.65429C11.4692 2.09147 7.31404 2.09147 4.75123 4.65429C2.18841 7.21711 2.18841 11.3723 4.75123 13.9351C7.08955 16.2734 10.7534 16.4782 13.324 14.5496C13.3384 14.5661 13.3534 14.5822 13.3691 14.598L16.6837 17.9125C17.0498 18.2786 17.6434 18.2786 18.0095 17.9125C18.3756 17.5464 18.3756 16.9528 18.0095 16.5867L14.695 13.2721C14.6792 13.2564 14.6631 13.2414 14.6466 13.227Z" fill="black"/>
</g>
<defs>
<clipPath id="clip0_253_5652">
<rect width="25.3218" height="22.5" fill="white" transform="translate(0.130371 0.0334473)"/>
</clipPath>
</defs>
</svg>
