<svg width="28" height="28" viewBox="0 0 28 28" fill="none" xmlns="http://www.w3.org/2000/svg">
<path fill-rule="evenodd" clip-rule="evenodd" d="M13.7989 0.645752C6.22698 0.645752 0.0884628 6.69007 0.0884628 14.1458C0.0884628 21.6014 6.22698 27.6458 13.7989 27.6458C21.3707 27.6458 27.5092 21.6014 27.5092 14.1458C27.5092 6.69007 21.3707 0.645752 13.7989 0.645752ZM2.58126 14.1458C2.58126 16.7108 3.46994 19.072 4.95939 20.9473C6.00567 19.595 7.35516 18.4991 8.90255 17.745C10.4499 16.991 12.1534 16.5992 13.8799 16.6003C15.5842 16.5983 17.2664 16.9796 18.7983 17.7151C20.3302 18.4506 21.6713 19.5208 22.7193 20.8442C23.7993 19.4495 24.5264 17.8217 24.8406 16.0954C25.1547 14.3691 25.0469 12.5939 24.526 10.9168C24.0051 9.23965 23.086 7.70877 21.845 6.4508C20.6039 5.19283 19.0764 4.24394 17.389 3.68265C15.7015 3.12135 13.9026 2.96379 12.141 3.22299C10.3794 3.48219 8.70581 4.15071 7.25871 5.17323C5.81161 6.19574 4.6326 7.54287 3.81922 9.10313C3.00584 10.6634 2.58149 12.3919 2.58126 14.1458ZM13.7989 25.1912C11.2237 25.1953 8.72619 24.323 6.72928 22.7219C7.53297 21.5887 8.60286 20.6634 9.84786 20.025C11.0929 19.3865 12.4761 19.0537 13.8799 19.0548C15.2661 19.0536 16.6326 19.3782 17.8658 20.0015C19.0991 20.6247 20.1635 21.5288 20.9706 22.6385C18.9583 24.2916 16.4196 25.1952 13.7989 25.1912Z" fill="white" fill-opacity="0.32"/>
</svg>
