<svg width="22" height="20" viewBox="0 0 22 20" fill="none" xmlns="http://www.w3.org/2000/svg">
<path d="M11.9861 0.732788C12.2448 0.732788 12.5034 0.792788 12.7522 0.882788L20.0746 3.93279C20.5613 4.13313 20.949 4.51956 21.1524 5.00712C21.3557 5.49468 21.3581 6.04345 21.159 6.53279L16.2244 18.4828C16.0786 18.8452 15.8303 19.1568 15.5103 19.379C15.1902 19.6011 14.8124 19.7241 14.4236 19.7328C14.1649 19.7328 13.8963 19.7028 13.6376 19.5828L6.30522 16.5328C5.95132 16.3818 5.64793 16.132 5.43102 15.813C5.21412 15.4939 5.09282 15.119 5.0815 14.7328C5.07155 14.4828 5.12129 14.1928 5.21083 13.9328L10.1853 1.98279C10.3255 1.61649 10.5723 1.30123 10.8936 1.07821C11.2149 0.855196 11.5956 0.734808 11.9861 0.732788ZM8.52384 0.732788L5.09144 9.08279V2.73279C5.09144 2.20236 5.30108 1.69365 5.67424 1.31857C6.0474 0.943502 6.55351 0.732788 7.08124 0.732788M3.0917 2.27279V11.3028L0.674099 5.44279C0.574984 5.20055 0.524416 4.94104 0.525301 4.67912C0.526186 4.4172 0.578503 4.15803 0.679253 3.91648C0.780003 3.67493 0.927202 3.45574 1.11241 3.27149C1.29762 3.08724 1.51719 2.94156 1.75854 2.84279M11.9861 2.70279L7.0315 14.7228L14.3838 17.7828L19.3384 5.77279" fill="#FF0808"/>
</svg>
