<svg width="42" height="42" viewBox="0 0 42 42" fill="none" xmlns="http://www.w3.org/2000/svg">
<path d="M41.5561 21.1773C41.5561 32.6449 32.2598 41.9412 20.7922 41.9412C9.32463 41.9412 0.0283203 32.6449 0.0283203 21.1773C0.0283203 9.70976 9.32463 0.413452 20.7922 0.413452C32.2598 0.413452 41.5561 9.70976 41.5561 21.1773Z" fill="#011027"/>
<path d="M19.8681 21.4173V15.8846H18.3128C16.59 15.8846 15.6818 14.7676 15.6818 13.6821C15.6818 12.5548 16.517 11.8868 17.634 11.8868C18.9181 11.8868 19.9202 12.8782 19.9202 14.5382V15.8846H21.6635V14.5382C21.6635 12.8782 22.6656 11.8868 23.9497 11.8868C25.0668 11.8868 25.9121 12.5548 25.9121 13.6817C25.9121 14.7676 24.9724 15.8846 23.2709 15.8846H21.7156V21.4178H29.0753C30.2129 21.4178 30.8289 20.9795 30.8289 19.8625V17.4404C30.8289 16.334 30.2129 15.8851 29.0753 15.8851H26.643C27.2902 15.3007 27.6763 14.507 27.6763 13.6091C27.6763 11.5946 26.0792 10.1439 24.0539 10.1439C22.5507 10.1439 21.3295 10.9786 20.7972 12.4613C20.2645 10.979 19.033 10.1439 17.5298 10.1439C15.5148 10.1439 13.9074 11.5946 13.9074 13.6091C13.9074 14.507 14.2833 15.3007 14.9407 15.8851H12.5089C11.4332 15.8851 10.7549 16.334 10.7549 17.4404V19.8625C10.7549 20.9795 11.3811 21.4178 12.5084 21.4178L19.8681 21.4173ZM19.8681 32.211V22.5344H12.2474V29.5596C12.2474 31.3029 13.2705 32.211 15.0138 32.211H19.8681ZM21.7156 22.5344V32.211H26.57C28.3133 32.211 29.3359 31.3029 29.3359 29.5596V22.5344H21.7156Z" fill="url(#paint0_linear_253_6112)"/>
<defs>
<linearGradient id="paint0_linear_253_6112" x1="20.7919" y1="10.1439" x2="20.7919" y2="32.211" gradientUnits="userSpaceOnUse">
<stop stop-color="#A4A4A4"/>
<stop offset="0.486776" stop-color="#D6D6D6"/>
<stop offset="1" stop-color="#8E8E8E"/>
</linearGradient>
</defs>
</svg>
