<svg width="24" height="18" viewBox="0 0 24 18" fill="none" xmlns="http://www.w3.org/2000/svg">
<path d="M14.4 2.4V0H24V2.4H14.4ZM14.4 7.2V4.8H24V7.2H14.4ZM14.4 12V9.6H24V12H14.4ZM7.2 10.8C6.2 10.8 5.35 10.45 4.65 9.75C3.95 9.05 3.6 8.2 3.6 7.2C3.6 6.2 3.95 5.35 4.65 4.65C5.35 3.95 6.2 3.6 7.2 3.6C8.2 3.6 9.05 3.95 9.75 4.65C10.45 5.35 10.8 6.2 10.8 7.2C10.8 8.2 10.45 9.05 9.75 9.75C9.05 10.45 8.2 10.8 7.2 10.8ZM0 18V15.72C0 15.3 0.1 14.9 0.3 14.52C0.5 14.14 0.78 13.84 1.14 13.62C2.04 13.08 2.995 12.675 4.005 12.405C5.015 12.135 6.08 12 7.2 12C8.32 12 9.385 12.135 10.395 12.405C11.405 12.675 12.36 13.08 13.26 13.62C13.62 13.84 13.9 14.14 14.1 14.52C14.3 14.9 14.4 15.3 14.4 15.72V18H0Z" fill="#FCFCFC"/>
</svg>
