<svg width="42" height="43" viewBox="0 0 42 43" fill="none" xmlns="http://www.w3.org/2000/svg">
<path d="M41.5278 21.5C41.5278 32.9676 32.2315 42.2639 20.7639 42.2639C9.29631 42.2639 0 32.9676 0 21.5C0 10.0324 9.29631 0.736084 20.7639 0.736084C32.2315 0.736084 41.5278 10.0324 41.5278 21.5Z" fill="#327EF3"/>
<path d="M20.764 10.7155C22.1941 10.7155 23.5656 11.2836 24.5769 12.2949C25.5881 13.3061 26.1562 14.6776 26.1562 16.1078C26.1562 17.5379 25.5881 18.9094 24.5769 19.9206C23.5656 20.9319 22.1941 21.5 20.764 21.5C19.3339 21.5 17.9623 20.9319 16.9511 19.9206C15.9398 18.9094 15.3717 17.5379 15.3717 16.1078C15.3717 14.6776 15.9398 13.3061 16.9511 12.2949C17.9623 11.2836 19.3339 10.7155 20.764 10.7155ZM20.764 24.1961C26.7224 24.1961 31.5485 26.6091 31.5485 29.5884V32.2845H9.97949V29.5884C9.97949 26.6091 14.8055 24.1961 20.764 24.1961Z" fill="#FCFCFC"/>
</svg>
