<svg width="24" height="20" viewBox="0 0 24 20" fill="none" xmlns="http://www.w3.org/2000/svg">
<path d="M4 19.3333C2.89244 19.3333 1.94889 18.9436 1.16933 18.164C0.389778 17.3844 0 16.4409 0 15.3333V4.66667C0 3.55912 0.389778 2.61556 1.16933 1.836C1.94889 1.05645 2.89244 0.666672 4 0.666672H20C21.1076 0.666672 22.0511 1.05645 22.8307 1.836C23.6102 2.61556 24 3.55912 24 4.66667V15.3333C24 16.4409 23.6102 17.3844 22.8307 18.164C22.0511 18.9436 21.1076 19.3333 20 19.3333H4ZM4 5.33334H20C20.5236 5.33334 21.0116 5.42312 21.464 5.60267C21.9164 5.78223 22.3173 6.04534 22.6667 6.392V4.66667C22.6667 3.93334 22.4058 3.30578 21.884 2.784C21.3622 2.26223 20.7342 2.00089 20 2.00001H4C3.26667 2.00001 2.63911 2.26134 2.11733 2.784C1.59556 3.30667 1.33422 3.93423 1.33333 4.66667V6.392C1.68178 6.04534 2.08267 5.78223 2.536 5.60267C2.98933 5.42312 3.47733 5.33334 4 5.33334ZM1.37867 8.97334L16.4947 12.652C16.6609 12.6964 16.8311 12.7004 17.0053 12.664C17.1796 12.6284 17.3298 12.5524 17.456 12.436L22.4227 8.236C22.2298 7.76578 21.9142 7.38667 21.476 7.09867C21.0378 6.81067 20.5458 6.66667 20 6.66667H4C3.31911 6.66667 2.73244 6.88489 2.24 7.32134C1.74667 7.75867 1.46 8.30978 1.38 8.97467" fill="#FCFCFC"/>
</svg>
