<svg width="19" height="14" viewBox="0 0 19 14" fill="none" xmlns="http://www.w3.org/2000/svg">
<mask id="path-1-inside-1_253_5730" fill="white">
<path fill-rule="evenodd" clip-rule="evenodd" d="M1.16168 0.87558C1.43062 0.606723 1.76312 0.410162 2.12832 0.30414C2.49352 0.198118 2.87958 0.186072 3.25068 0.269118C3.62178 0.352165 3.96588 0.527614 4.25106 0.779181C4.53624 1.03075 4.75324 1.35028 4.88193 1.70812C5.9895 1.2659 7.19958 1.14604 8.37239 1.36238C9.54519 1.57873 10.6329 2.12245 11.5097 2.93075L11.6967 3.10953L18.72 10.1338C18.8755 10.2892 18.9689 10.4961 18.9827 10.7156C18.9965 10.935 18.9297 11.1519 18.7949 11.3257L18.72 11.4106L16.8048 13.3258C16.6695 13.4611 16.4947 13.5499 16.3056 13.5795C16.1165 13.609 15.923 13.5777 15.7528 13.4901L15.6526 13.4296L12.4163 11.1902C11.4914 12.531 10.0845 13.463 8.48919 13.7917C6.89383 14.1205 5.23315 13.8207 3.85347 12.9548C2.47379 12.089 1.48164 10.7239 1.08393 9.14432C0.686219 7.56474 0.91366 5.8926 1.71882 4.47664C1.40362 4.31331 1.13139 4.07794 0.924232 3.78966C0.717071 3.50137 0.58082 3.1683 0.526542 2.81747C0.472265 2.46665 0.501491 2.10797 0.611849 1.77056C0.722206 1.43315 0.910583 1.12652 1.16168 0.87558ZM4.03494 4.38724C3.57014 4.85302 3.21277 5.41477 2.98785 6.03316C2.76293 6.65155 2.67591 7.31163 2.73287 7.96718C2.78982 8.62274 2.98939 9.25791 3.31759 9.82824C3.64579 10.3986 4.09469 10.8903 4.63286 11.2689C5.17103 11.6475 5.78546 11.904 6.43314 12.0202C7.08081 12.1365 7.74606 12.1098 8.38232 11.9419C9.01858 11.7741 9.61046 11.4692 10.1165 11.0486C10.6226 10.628 11.0306 10.1019 11.312 9.5071C11.3679 9.38857 11.449 9.28363 11.5495 9.19957C11.65 9.11551 11.7677 9.05435 11.8942 9.02032C12.0208 8.9863 12.1532 8.98023 12.2824 9.00254C12.4115 9.02485 12.5343 9.07501 12.6421 9.14952L16.0607 11.5153L16.8048 10.7722L10.4199 4.38724C9.57316 3.54056 8.4248 3.0649 7.2274 3.0649C6.03 3.0649 4.88164 3.54056 4.03494 4.38724ZM9.14215 5.66405C9.39709 5.91481 9.59986 6.21356 9.73876 6.54308C9.87766 6.8726 9.94995 7.22636 9.95144 7.58395C9.95294 7.94154 9.88363 8.29589 9.74749 8.62656C9.61136 8.95723 9.4111 9.25768 9.15827 9.51057C8.90544 9.76346 8.60504 9.96378 8.27441 10.1C7.94377 10.2362 7.58943 10.3056 7.23184 10.3042C6.87425 10.3028 6.52047 10.2306 6.19092 10.0918C5.86137 9.95294 5.56257 9.75024 5.31175 9.49536C4.80368 8.9873 4.51825 8.29821 4.51825 7.5797C4.51825 6.86119 4.80368 6.17211 5.31175 5.66405C5.81981 5.15598 6.50889 4.87055 7.2274 4.87055C7.94591 4.87055 8.63499 5.15598 9.14306 5.66405M6.58945 6.94175C6.50321 7.02505 6.43442 7.12469 6.38709 7.23485C6.33977 7.34502 6.31486 7.46351 6.31382 7.5834C6.31278 7.7033 6.33562 7.8222 6.38103 7.93317C6.42643 8.04415 6.49348 8.14496 6.57826 8.22975C6.66304 8.31453 6.76386 8.38158 6.87483 8.42698C6.9858 8.47238 7.10471 8.49523 7.2246 8.49419C7.3445 8.49315 7.46299 8.46824 7.57315 8.42091C7.68332 8.37359 7.78296 8.3048 7.86625 8.21855C8.03569 8.04924 8.13092 7.81955 8.13101 7.58002C8.13109 7.34049 8.03602 7.11073 7.86671 6.9413C7.69739 6.77186 7.4677 6.67663 7.22817 6.67655C6.98864 6.67646 6.75889 6.77153 6.58945 6.94085M3.07779 2.15148C3.03614 2.10836 2.98632 2.07396 2.93124 2.0503C2.87616 2.02664 2.81691 2.01419 2.75697 2.01366C2.69702 2.01314 2.63757 2.02457 2.58208 2.04727C2.52659 2.06997 2.47618 2.10349 2.43379 2.14588C2.3914 2.18828 2.35788 2.23868 2.33518 2.29417C2.31247 2.34966 2.30105 2.40911 2.30157 2.46906C2.30209 2.529 2.31455 2.58825 2.33821 2.64333C2.36187 2.69841 2.39627 2.74823 2.43939 2.78988C2.52454 2.87212 2.63859 2.91763 2.75697 2.9166C2.87534 2.91557 2.98858 2.86809 3.07229 2.78438C3.156 2.70067 3.20348 2.58744 3.20451 2.46906C3.20554 2.35068 3.16003 2.23663 3.07779 2.15148Z"/>
</mask>
<path fill-rule="evenodd" clip-rule="evenodd" d="M1.16168 0.87558C1.43062 0.606723 1.76312 0.410162 2.12832 0.30414C2.49352 0.198118 2.87958 0.186072 3.25068 0.269118C3.62178 0.352165 3.96588 0.527614 4.25106 0.779181C4.53624 1.03075 4.75324 1.35028 4.88193 1.70812C5.9895 1.2659 7.19958 1.14604 8.37239 1.36238C9.54519 1.57873 10.6329 2.12245 11.5097 2.93075L11.6967 3.10953L18.72 10.1338C18.8755 10.2892 18.9689 10.4961 18.9827 10.7156C18.9965 10.935 18.9297 11.1519 18.7949 11.3257L18.72 11.4106L16.8048 13.3258C16.6695 13.4611 16.4947 13.5499 16.3056 13.5795C16.1165 13.609 15.923 13.5777 15.7528 13.4901L15.6526 13.4296L12.4163 11.1902C11.4914 12.531 10.0845 13.463 8.48919 13.7917C6.89383 14.1205 5.23315 13.8207 3.85347 12.9548C2.47379 12.089 1.48164 10.7239 1.08393 9.14432C0.686219 7.56474 0.91366 5.8926 1.71882 4.47664C1.40362 4.31331 1.13139 4.07794 0.924232 3.78966C0.717071 3.50137 0.58082 3.1683 0.526542 2.81747C0.472265 2.46665 0.501491 2.10797 0.611849 1.77056C0.722206 1.43315 0.910583 1.12652 1.16168 0.87558ZM4.03494 4.38724C3.57014 4.85302 3.21277 5.41477 2.98785 6.03316C2.76293 6.65155 2.67591 7.31163 2.73287 7.96718C2.78982 8.62274 2.98939 9.25791 3.31759 9.82824C3.64579 10.3986 4.09469 10.8903 4.63286 11.2689C5.17103 11.6475 5.78546 11.904 6.43314 12.0202C7.08081 12.1365 7.74606 12.1098 8.38232 11.9419C9.01858 11.7741 9.61046 11.4692 10.1165 11.0486C10.6226 10.628 11.0306 10.1019 11.312 9.5071C11.3679 9.38857 11.449 9.28363 11.5495 9.19957C11.65 9.11551 11.7677 9.05435 11.8942 9.02032C12.0208 8.9863 12.1532 8.98023 12.2824 9.00254C12.4115 9.02485 12.5343 9.07501 12.6421 9.14952L16.0607 11.5153L16.8048 10.7722L10.4199 4.38724C9.57316 3.54056 8.4248 3.0649 7.2274 3.0649C6.03 3.0649 4.88164 3.54056 4.03494 4.38724ZM9.14215 5.66405C9.39709 5.91481 9.59986 6.21356 9.73876 6.54308C9.87766 6.8726 9.94995 7.22636 9.95144 7.58395C9.95294 7.94154 9.88363 8.29589 9.74749 8.62656C9.61136 8.95723 9.4111 9.25768 9.15827 9.51057C8.90544 9.76346 8.60504 9.96378 8.27441 10.1C7.94377 10.2362 7.58943 10.3056 7.23184 10.3042C6.87425 10.3028 6.52047 10.2306 6.19092 10.0918C5.86137 9.95294 5.56257 9.75024 5.31175 9.49536C4.80368 8.9873 4.51825 8.29821 4.51825 7.5797C4.51825 6.86119 4.80368 6.17211 5.31175 5.66405C5.81981 5.15598 6.50889 4.87055 7.2274 4.87055C7.94591 4.87055 8.63499 5.15598 9.14306 5.66405M6.58945 6.94175C6.50321 7.02505 6.43442 7.12469 6.38709 7.23485C6.33977 7.34502 6.31486 7.46351 6.31382 7.5834C6.31278 7.7033 6.33562 7.8222 6.38103 7.93317C6.42643 8.04415 6.49348 8.14496 6.57826 8.22975C6.66304 8.31453 6.76386 8.38158 6.87483 8.42698C6.9858 8.47238 7.10471 8.49523 7.2246 8.49419C7.3445 8.49315 7.46299 8.46824 7.57315 8.42091C7.68332 8.37359 7.78296 8.3048 7.86625 8.21855C8.03569 8.04924 8.13092 7.81955 8.13101 7.58002C8.13109 7.34049 8.03602 7.11073 7.86671 6.9413C7.69739 6.77186 7.4677 6.67663 7.22817 6.67655C6.98864 6.67646 6.75889 6.77153 6.58945 6.94085M3.07779 2.15148C3.03614 2.10836 2.98632 2.07396 2.93124 2.0503C2.87616 2.02664 2.81691 2.01419 2.75697 2.01366C2.69702 2.01314 2.63757 2.02457 2.58208 2.04727C2.52659 2.06997 2.47618 2.10349 2.43379 2.14588C2.3914 2.18828 2.35788 2.23868 2.33518 2.29417C2.31247 2.34966 2.30105 2.40911 2.30157 2.46906C2.30209 2.529 2.31455 2.58825 2.33821 2.64333C2.36187 2.69841 2.39627 2.74823 2.43939 2.78988C2.52454 2.87212 2.63859 2.91763 2.75697 2.9166C2.87534 2.91557 2.98858 2.86809 3.07229 2.78438C3.156 2.70067 3.20348 2.58744 3.20451 2.46906C3.20554 2.35068 3.16003 2.23663 3.07779 2.15148Z" fill="#8E2BFF"/>
<path d="M1.16168 0.87558L1.30306 1.01705L1.30308 1.01702L1.16168 0.87558ZM4.88193 1.70812L4.69373 1.7758L4.7638 1.97064L4.95609 1.89386L4.88193 1.70812ZM11.5097 2.93075L11.648 2.78619L11.6453 2.78369L11.5097 2.93075ZM11.6967 3.10953L11.8381 2.96809L11.8349 2.96501L11.6967 3.10953ZM18.72 10.1338L18.5786 10.2752L18.5786 10.2752L18.72 10.1338ZM18.7949 11.3257L18.9452 11.4583L18.953 11.4483L18.7949 11.3257ZM18.72 11.4106L18.8617 11.5523L18.8699 11.5429L18.72 11.4106ZM16.8048 13.3258L16.6634 13.1843L16.6633 13.1844L16.8048 13.3258ZM15.7528 13.4901L15.6492 13.6617L15.6613 13.6679L15.7528 13.4901ZM15.6526 13.4296L15.5386 13.5944L15.5492 13.6008L15.6526 13.4296ZM12.4163 11.1902L12.5301 11.0258L12.3654 10.9118L12.2517 11.0767L12.4163 11.1902ZM1.71882 4.47664L1.89267 4.5755L1.99546 4.39473L1.81083 4.29906L1.71882 4.47664ZM4.03494 4.38724L3.89352 4.24582L3.89337 4.24597L4.03494 4.38724ZM11.312 9.5071L11.4928 9.59262L11.4929 9.59242L11.312 9.5071ZM12.6421 9.14952L12.7559 8.98506L12.7558 8.98499L12.6421 9.14952ZM16.0607 11.5153L15.9469 11.6798L16.0841 11.7747L16.2021 11.6568L16.0607 11.5153ZM16.8048 10.7722L16.9461 10.9137L17.0877 10.7722L16.9462 10.6307L16.8048 10.7722ZM10.4199 4.38724L10.5613 4.24582L10.5613 4.24582L10.4199 4.38724ZM5.31175 9.49536L5.4543 9.35507L5.45317 9.35394L5.31175 9.49536ZM4.51825 7.5797H4.31825H4.51825ZM7.2274 4.87055V5.07055V4.87055ZM6.57826 8.22975L6.43684 8.37117L6.57826 8.22975ZM7.86625 8.21855L7.72486 8.07706L7.7224 8.07961L7.86625 8.21855ZM3.07779 2.15148L2.93393 2.29042L3.07779 2.15148ZM2.43939 2.78988L2.57833 2.64602L2.43939 2.78988ZM1.30308 1.01702C1.54819 0.771985 1.85123 0.592838 2.18408 0.49621L2.07256 0.11207C1.675 0.227485 1.31305 0.441461 1.02028 0.734138L1.30308 1.01702ZM2.18408 0.49621C2.51692 0.399581 2.86878 0.388602 3.207 0.464291L3.29436 0.0739459C2.89038 -0.0164586 2.47011 -0.00334495 2.07256 0.11207L2.18408 0.49621ZM3.207 0.464291C3.54522 0.53998 3.85884 0.699885 4.11875 0.929164L4.38337 0.629198C4.07293 0.355343 3.69833 0.16435 3.29436 0.0739459L3.207 0.464291ZM4.11875 0.929164C4.37866 1.15844 4.57644 1.44967 4.69373 1.7758L5.07013 1.64044C4.93004 1.25089 4.69381 0.903053 4.38337 0.629198L4.11875 0.929164ZM4.95609 1.89386C6.02862 1.46563 7.20041 1.34956 8.3361 1.55906L8.40867 1.1657C7.19875 0.942508 5.95038 1.06616 4.80777 1.52238L4.95609 1.89386ZM8.3361 1.55906C9.4718 1.76856 10.5251 2.29508 11.3742 3.0778L11.6453 2.78369C10.7407 1.94982 9.61858 1.38889 8.40867 1.1657L8.3361 1.55906ZM11.3715 3.07527L11.5584 3.25406L11.8349 2.96501L11.648 2.78622L11.3715 3.07527ZM11.5552 3.25095L18.5786 10.2752L18.8614 9.99235L11.8381 2.96812L11.5552 3.25095ZM18.5786 10.2752C18.6996 10.3962 18.7723 10.5573 18.783 10.7281L19.1823 10.703C19.1654 10.435 19.0513 10.1823 18.8614 9.99235L18.5786 10.2752ZM18.783 10.7281C18.7938 10.899 18.7418 11.0678 18.6369 11.2031L18.953 11.4483C19.1176 11.2361 19.1991 10.9711 19.1823 10.703L18.783 10.7281ZM18.645 11.1933L18.5701 11.2782L18.8699 11.5429L18.9449 11.4581L18.645 11.1933ZM18.5786 11.2691L16.6634 13.1843L16.9462 13.4672L18.8614 11.552L18.5786 11.2691ZM16.6633 13.1844C16.558 13.2897 16.4219 13.3589 16.2747 13.3819L16.3365 13.7771C16.5674 13.741 16.7809 13.6325 16.9462 13.4672L16.6633 13.1844ZM16.2747 13.3819C16.1275 13.4049 15.9768 13.3805 15.8444 13.3123L15.6613 13.6679C15.8691 13.7749 16.1055 13.8132 16.3365 13.7771L16.2747 13.3819ZM15.8562 13.3189L15.7559 13.2584L15.5492 13.6008L15.6495 13.6613L15.8562 13.3189ZM15.7664 13.2651L12.5301 11.0258L12.3025 11.3547L15.5388 13.5941L15.7664 13.2651ZM12.2517 11.0767C11.356 12.375 9.9937 13.2775 8.44882 13.5959L8.52955 13.9876C10.1754 13.6485 11.6268 12.687 12.581 11.3038L12.2517 11.0767ZM8.44882 13.5959C6.90395 13.9142 5.29581 13.6239 3.95978 12.7854L3.74715 13.1242C5.17049 14.0175 6.88372 14.3268 8.52955 13.9876L8.44882 13.5959ZM3.95978 12.7854C2.62376 11.947 1.663 10.6251 1.27787 9.09549L0.88998 9.19315C1.30027 10.8227 2.32382 12.231 3.74715 13.1242L3.95978 12.7854ZM1.27787 9.09549C0.89275 7.56589 1.11299 5.94666 1.89267 4.5755L1.54496 4.37778C0.714326 5.83855 0.479688 7.56359 0.88998 9.19315L1.27787 9.09549ZM1.81083 4.29906C1.52357 4.1502 1.27545 3.93569 1.08665 3.67295L0.761817 3.90637C0.987332 4.22019 1.28368 4.47641 1.6268 4.65421L1.81083 4.29906ZM1.08665 3.67295C0.897839 3.4102 0.773659 3.10663 0.724191 2.78689L0.328894 2.84805C0.38798 3.22996 0.536303 3.59254 0.761817 3.90637L1.08665 3.67295ZM0.724191 2.78689C0.674722 2.46715 0.701359 2.14025 0.801939 1.83273L0.421758 1.70838C0.301623 2.07569 0.269808 2.46614 0.328894 2.84805L0.724191 2.78689ZM0.801939 1.83273C0.902519 1.52522 1.07421 1.24576 1.30306 1.01705L1.0203 0.734115C0.746959 1.00729 0.541893 1.34108 0.421758 1.70838L0.801939 1.83273ZM3.89337 4.24597C3.40798 4.73238 3.03478 5.31902 2.7999 5.9648L3.17581 6.10152C3.39076 5.51053 3.7323 4.97366 4.17651 4.52851L3.89337 4.24597ZM2.7999 5.9648C2.56502 6.61058 2.47414 7.2999 2.53362 7.9845L2.93212 7.94987C2.87768 7.32336 2.96085 6.69252 3.17581 6.10152L2.7999 5.9648ZM2.53362 7.9845C2.5931 8.66909 2.8015 9.3324 3.14424 9.928L3.49094 9.72849C3.17728 9.18342 2.98655 8.57638 2.93212 7.94987L2.53362 7.9845ZM3.14424 9.928C3.48698 10.5236 3.95577 11.0371 4.51778 11.4325L4.74794 11.1053C4.23361 10.7435 3.8046 10.2736 3.49094 9.72849L3.14424 9.928ZM4.51778 11.4325C5.07979 11.8279 5.72144 12.0957 6.3978 12.2171L6.46847 11.8234C5.84949 11.7123 5.26228 11.4672 4.74794 11.1053L4.51778 11.4325ZM6.3978 12.2171C7.07416 12.3385 7.76889 12.3106 8.43333 12.1353L8.33131 11.7485C7.72323 11.9089 7.08745 11.9345 6.46847 11.8234L6.3978 12.2171ZM8.43333 12.1353C9.09777 11.96 9.71588 11.6417 10.2444 11.2024L9.98869 10.8948C9.50505 11.2968 8.93938 11.5881 8.33131 11.7485L8.43333 12.1353ZM10.2444 11.2024C10.7728 10.7632 11.1989 10.2138 11.4928 9.59262L11.1312 9.42157C10.8623 9.99004 10.4723 10.4929 9.98869 10.8948L10.2444 11.2024ZM11.4929 9.59242C11.5364 9.50015 11.5995 9.41845 11.6778 9.35301L11.4212 9.04613C11.2984 9.14881 11.1994 9.27699 11.1311 9.42177L11.4929 9.59242ZM11.6778 9.35301C11.7561 9.28757 11.8476 9.23995 11.9462 9.21347L11.8423 8.82718C11.6877 8.86874 11.544 8.94345 11.4212 9.04613L11.6778 9.35301ZM11.9462 9.21347C12.0447 9.18698 12.1478 9.18225 12.2483 9.19962L12.3164 8.80546C12.1587 8.77821 11.9969 8.78562 11.8423 8.82718L11.9462 9.21347ZM12.2483 9.19962C12.3489 9.21699 12.4444 9.25604 12.5284 9.31405L12.7558 8.98499C12.6241 8.89398 12.4742 8.83271 12.3164 8.80546L12.2483 9.19962ZM12.5283 9.31398L15.9469 11.6798L16.1745 11.3508L12.7559 8.98506L12.5283 9.31398ZM16.2021 11.6568L16.9461 10.9137L16.6634 10.6307L15.9194 11.3738L16.2021 11.6568ZM16.9462 10.6307L10.5613 4.24582L10.2784 4.52866L16.6634 10.9136L16.9462 10.6307ZM10.5613 4.24582C9.67708 3.36163 8.47785 2.8649 7.2274 2.8649V3.2649C8.37176 3.2649 9.46925 3.71949 10.2784 4.52866L10.5613 4.24582ZM7.2274 2.8649C5.97696 2.8649 4.77773 3.36163 3.89352 4.24582L4.17636 4.52866C4.98555 3.71949 6.08304 3.2649 7.2274 3.2649V2.8649ZM9.00191 5.80663C9.23802 6.03888 9.42582 6.31558 9.55447 6.62077L9.92306 6.46539C9.7739 6.11155 9.55616 5.79074 9.2824 5.52146L9.00191 5.80663ZM9.55447 6.62077C9.68311 6.92595 9.75006 7.25359 9.75145 7.58479L10.1514 7.58311C10.1498 7.19912 10.0722 6.81924 9.92306 6.46539L9.55447 6.62077ZM9.75145 7.58479C9.75283 7.91598 9.68863 8.24417 9.56255 8.55042L9.93243 8.7027C10.0786 8.34762 10.1531 7.96711 10.1514 7.58311L9.75145 7.58479ZM9.56255 8.55042C9.43647 8.85668 9.25099 9.13494 9.01683 9.36916L9.29971 9.65197C9.5712 9.38041 9.78625 9.05779 9.93243 8.7027L9.56255 8.55042ZM9.01683 9.36916C8.78267 9.60338 8.50445 9.78892 8.19822 9.91507L8.35059 10.2849C8.70564 10.1386 9.02821 9.92353 9.29971 9.65197L9.01683 9.36916ZM8.19822 9.91507C7.892 10.0412 7.56382 10.1055 7.23263 10.1042L7.23105 10.5042C7.61504 10.5057 7.99554 10.4312 8.35059 10.2849L8.19822 9.91507ZM7.23263 10.1042C6.90144 10.1029 6.57378 10.036 6.26856 9.90744L6.11328 10.2761C6.46716 10.4251 6.84705 10.5027 7.23105 10.5042L7.23263 10.1042ZM6.26856 9.90744C5.96334 9.77887 5.6866 9.59114 5.4543 9.35508L5.16919 9.63564C5.43853 9.90934 5.7594 10.127 6.11328 10.2761L6.26856 9.90744ZM5.45317 9.35394C4.98261 8.88338 4.71825 8.24517 4.71825 7.5797H4.31825C4.31825 8.35126 4.62475 9.09121 5.17032 9.63678L5.45317 9.35394ZM4.71825 7.5797C4.71825 6.91423 4.98261 6.27602 5.45317 5.80547L5.17032 5.52262C4.62475 6.06819 4.31825 6.80815 4.31825 7.5797H4.71825ZM5.45317 5.80547C5.92372 5.33491 6.56193 5.07055 7.2274 5.07055V4.67055C6.45585 4.67055 5.7159 4.97705 5.17032 5.52262L5.45317 5.80547ZM7.2274 5.07055C7.89287 5.07055 8.53108 5.33491 9.00164 5.80547L9.28448 5.52262C8.73891 4.97705 7.99896 4.67055 7.2274 4.67055V5.07055ZM6.45051 6.79789C6.34516 6.89964 6.26114 7.02135 6.20333 7.15591L6.57086 7.31379C6.6077 7.22803 6.66125 7.15046 6.72839 7.08561L6.45051 6.79789ZM6.20333 7.15591C6.14552 7.29048 6.1151 7.43521 6.11383 7.58167L6.51381 7.58514C6.51462 7.4918 6.53401 7.39956 6.57086 7.31379L6.20333 7.15591ZM6.11383 7.58167C6.11255 7.72812 6.14046 7.87336 6.19592 8.00891L6.56613 7.85744C6.53079 7.77105 6.513 7.67848 6.51381 7.58514L6.11383 7.58167ZM6.19592 8.00891C6.25138 8.14446 6.33328 8.26761 6.43684 8.37117L6.71968 8.08833C6.65368 8.02232 6.60148 7.94383 6.56613 7.85744L6.19592 8.00891ZM6.43684 8.37117C6.5404 8.47473 6.66355 8.55663 6.7991 8.61209L6.95057 8.24187C6.86417 8.20653 6.78569 8.15433 6.71968 8.08833L6.43684 8.37117ZM6.7991 8.61209C6.93465 8.66755 7.07989 8.69545 7.22634 8.69418L7.22287 8.2942C7.12953 8.29501 7.03696 8.27722 6.95057 8.24187L6.7991 8.61209ZM7.22634 8.69418C7.37279 8.69291 7.51753 8.66248 7.65209 8.60467L7.49422 8.23715C7.40845 8.27399 7.31621 8.29338 7.22287 8.2942L7.22634 8.69418ZM7.65209 8.60467C7.78666 8.54687 7.90837 8.46284 8.01011 8.3575L7.7224 8.07961C7.65755 8.14675 7.57998 8.20031 7.49422 8.23715L7.65209 8.60467ZM8.00763 8.36003C8.21458 8.15322 8.3309 7.87267 8.33101 7.58009L7.93101 7.57995C7.93094 7.76644 7.8568 7.94526 7.72488 8.07708L8.00763 8.36003ZM8.33101 7.58009C8.33111 7.28752 8.21499 7.00688 8.00818 6.79993L7.72524 7.08267C7.85706 7.21458 7.93107 7.39346 7.93101 7.57995L8.33101 7.58009ZM8.00818 6.79993C7.80137 6.59297 7.52082 6.47665 7.22824 6.47655L7.2281 6.87655C7.41459 6.87661 7.59341 6.95076 7.72524 7.08267L8.00818 6.79993ZM7.22824 6.47655C6.93567 6.47644 6.65504 6.59257 6.44808 6.79938L6.73082 7.08232C6.86274 6.9505 7.04161 6.87648 7.2281 6.87655L7.22824 6.47655ZM3.22165 2.01254C3.16155 1.95031 3.08966 1.90068 3.01018 1.86654L2.8523 2.23406C2.88298 2.24725 2.91073 2.2664 2.93393 2.29042L3.22165 2.01254ZM3.01018 1.86654C2.93069 1.8324 2.84521 1.81442 2.7587 1.81367L2.75523 2.21366C2.78862 2.21395 2.82162 2.22088 2.8523 2.23406L3.01018 1.86654ZM2.7587 1.81367C2.6722 1.81292 2.58641 1.8294 2.50635 1.86216L2.65781 2.23237C2.68872 2.21973 2.72183 2.21337 2.75523 2.21366L2.7587 1.81367ZM2.50635 1.86216C2.42628 1.89492 2.35354 1.94329 2.29237 2.00446L2.57521 2.28731C2.59883 2.26369 2.62691 2.24502 2.65781 2.23237L2.50635 1.86216ZM2.29237 2.00446C2.2312 2.06563 2.18283 2.13837 2.15007 2.21844L2.52028 2.3699C2.53293 2.339 2.5516 2.31092 2.57521 2.28731L2.29237 2.00446ZM2.15007 2.21844C2.11731 2.2985 2.10083 2.38429 2.10158 2.47079L2.50156 2.46732C2.50127 2.43393 2.50764 2.40081 2.52028 2.3699L2.15007 2.21844ZM2.10158 2.47079C2.10233 2.5573 2.1203 2.64279 2.15445 2.72227L2.52197 2.56439C2.50879 2.53371 2.50186 2.50071 2.50156 2.46732L2.10158 2.47079ZM2.15445 2.72227C2.18859 2.80175 2.23822 2.87364 2.30045 2.93374L2.57833 2.64602C2.55431 2.62283 2.53515 2.59508 2.52197 2.56439L2.15445 2.72227ZM2.30045 2.93374C2.42332 3.05241 2.58788 3.11808 2.7587 3.1166L2.75523 2.71661C2.68929 2.71718 2.62576 2.69183 2.57833 2.64602L2.30045 2.93374ZM2.7587 3.1166C2.92952 3.11511 3.09292 3.04659 3.21371 2.9258L2.93087 2.64296C2.88424 2.68959 2.82117 2.71604 2.75523 2.71661L2.7587 3.1166ZM3.21371 2.9258C3.3345 2.80501 3.40302 2.64161 3.4045 2.47079L3.00452 2.46732C3.00395 2.53326 2.9775 2.59633 2.93087 2.64296L3.21371 2.9258ZM3.4045 2.47079C3.40599 2.29998 3.34032 2.13541 3.22165 2.01254L2.93393 2.29042C2.97974 2.33785 3.00509 2.40138 3.00452 2.46732L3.4045 2.47079Z" fill="white" mask="url(#path-1-inside-1_253_5730)"/>
</svg>
