<svg width="24" height="25" viewBox="0 0 24 25" fill="none" xmlns="http://www.w3.org/2000/svg">
<path fill-rule="evenodd" clip-rule="evenodd" d="M7.05025 17.07C7.44078 17.4605 8.07394 17.4605 8.46447 17.07L12.0001 13.5344L15.5356 17.0699C15.9261 17.4604 16.5593 17.4604 16.9498 17.0699C17.3404 16.6794 17.3404 16.0462 16.9498 15.6557L13.4143 12.1202L16.9497 8.58473C17.3403 8.1942 17.3403 7.56104 16.9497 7.17051C16.5592 6.77999 15.9261 6.77999 15.5355 7.17051L12.0001 10.706L8.46455 7.17043C8.07403 6.7799 7.44086 6.7799 7.05034 7.17043C6.65981 7.56095 6.65981 8.19411 7.05034 8.58464L10.5859 12.1202L7.05025 15.6558C6.65973 16.0463 6.65973 16.6795 7.05025 17.07Z" fill="#317EF4"/>
</svg>
