<svg width="22" height="20" viewBox="0 0 22 20" fill="none" xmlns="http://www.w3.org/2000/svg">
<path d="M11.9861 0.971558C12.2448 0.971558 12.5034 1.03156 12.7522 1.12156L20.0746 4.17156C20.5613 4.3719 20.949 4.75833 21.1524 5.24589C21.3557 5.73345 21.3581 6.28222 21.159 6.77156L16.2244 18.7216C16.0786 19.084 15.8303 19.3956 15.5103 19.6177C15.1902 19.8399 14.8124 19.9629 14.4236 19.9716C14.1649 19.9716 13.8963 19.9416 13.6376 19.8216L6.30522 16.7716C5.95132 16.6206 5.64793 16.3708 5.43102 16.0517C5.21412 15.7327 5.09282 15.3578 5.0815 14.9716C5.07155 14.7216 5.12129 14.4316 5.21083 14.1716L10.1853 2.22156C10.3255 1.85526 10.5723 1.54 10.8936 1.31698C11.2149 1.09397 11.5956 0.973578 11.9861 0.971558ZM8.52384 0.971558L5.09144 9.32156V2.97156C5.09144 2.44112 5.30108 1.93242 5.67424 1.55734C6.0474 1.18227 6.55351 0.971558 7.08124 0.971558M3.0917 2.51156V11.5416L0.674099 5.68156C0.574984 5.43932 0.524416 5.17981 0.525301 4.91789C0.526186 4.65597 0.578503 4.3968 0.679253 4.15525C0.780003 3.9137 0.927202 3.69451 1.11241 3.51026C1.29762 3.32601 1.51719 3.18033 1.75854 3.08156M11.9861 2.94156L7.0315 14.9616L14.3838 18.0216L19.3384 6.01156" fill="#FFDD00"/>
</svg>
